<?xml version="1.0" encoding="UTF-8"?>
<svg xmlns="http://www.w3.org/2000/svg" xmlns:xlink="http://www.w3.org/1999/xlink" width="200px" height="200px" viewBox="0 0 200 200" version="1.1">
<g id="surface1">
<path style=" stroke:none;fill-rule:evenodd;fill:rgb(98.039216%,70.196078%,4.313725%);fill-opacity:1;" d="M 91.464844 47.523438 C 91.113281 47.878906 91.011719 48.117188 91.023438 48.582031 L 91.035156 49.179688 L 91.179688 48.679688 C 91.453125 47.742188 92.761719 47.238281 93.714844 47.703125 C 93.988281 47.835938 93.96875 47.785156 93.617188 47.46875 C 92.984375 46.890625 92.078125 46.914062 91.464844 47.523438 M 114.269531 47.238281 C 113.875 47.464844 113.523438 48.21875 113.53125 48.820312 L 113.539062 49.335938 L 113.761719 48.710938 C 114.113281 47.71875 115.695312 47.03125 116.105469 47.695312 C 116.160156 47.78125 116.285156 47.847656 116.390625 47.84375 C 116.492188 47.84375 116.378906 47.667969 116.136719 47.453125 C 115.667969 47.042969 114.78125 46.9375 114.269531 47.238281 M 118.195312 49.058594 C 117.867188 51.179688 115.550781 52.296875 113.527344 51.308594 L 112.824219 50.964844 L 113.355469 51.433594 C 115.289062 53.132812 118.527344 51.589844 118.34375 49.058594 L 118.296875 48.398438 L 118.195312 49.058594 M 95.8125 49.585938 C 95.660156 49.675781 95.359375 50.023438 95.148438 50.359375 C 94.171875 51.90625 91.664062 52.128906 90.367188 50.78125 L 90.03125 50.429688 L 90.210938 50.777344 C 91.15625 52.613281 94.121094 52.582031 95.402344 50.71875 C 95.660156 50.347656 96.042969 50 96.253906 49.945312 C 96.464844 49.890625 96.636719 49.75 96.636719 49.632812 C 96.636719 49.378906 96.210938 49.351562 95.8125 49.585938 M 111.0625 57.425781 L 111.097656 65.441406 L 111.140625 57.660156 C 111.1875 49.019531 111.117188 49.539062 112.167969 50.046875 C 112.4375 50.179688 112.417969 50.132812 112.070312 49.8125 C 110.976562 48.816406 111.019531 48.480469 111.0625 57.425781 M 98.273438 57.46875 C 98.273438 61.851562 98.292969 63.671875 98.320312 61.503906 C 98.34375 59.339844 98.34375 55.75 98.320312 53.53125 C 98.292969 51.308594 98.273438 53.082031 98.273438 57.46875 M 86.664062 61.929688 C 86.277344 62.085938 85.796875 63.039062 85.886719 63.464844 C 85.921875 63.640625 86.027344 63.542969 86.214844 63.15625 C 86.621094 62.320312 87.679688 61.976562 88.554688 62.402344 C 88.828125 62.535156 88.804688 62.484375 88.460938 62.167969 C 88 61.746094 87.335938 61.660156 86.664062 61.929688 M 119.523438 61.921875 C 119.007812 62.128906 118.683594 62.710938 118.699219 63.40625 L 118.714844 64.035156 L 118.871094 63.488281 C 119.160156 62.464844 120.085938 61.988281 121.0625 62.355469 C 121.644531 62.574219 121.628906 62.308594 121.039062 62.003906 C 120.53125 61.742188 120.035156 61.714844 119.523438 61.921875 M 90.566406 63.550781 C 90.53125 64.382812 89.894531 65.410156 89.058594 65.984375 C 88.351562 66.472656 88.03125 67.308594 88.238281 68.121094 C 88.28125 68.28125 88.320312 68.148438 88.332031 67.820312 C 88.34375 67.394531 88.460938 67.132812 88.75 66.882812 C 90.535156 65.335938 90.789062 64.886719 90.65625 63.558594 L 90.59375 62.941406 L 90.566406 63.550781 M 123.285156 63.917969 C 123.089844 64.757812 122.441406 65.664062 121.730469 66.078125 L 121.03125 66.488281 L 121.0625 67.527344 C 121.089844 68.519531 121.09375 68.53125 121.148438 67.746094 C 121.199219 66.980469 121.242188 66.90625 121.78125 66.628906 C 122.722656 66.148438 123.25 65.371094 123.449219 64.152344 C 123.574219 63.417969 123.441406 63.234375 123.285156 63.917969 M 85.210938 65.652344 C 85.589844 66.195312 86.472656 66.828125 86.621094 66.667969 C 86.671875 66.617188 86.574219 66.496094 86.40625 66.402344 C 86.242188 66.304688 85.824219 65.976562 85.476562 65.675781 L 84.84375 65.128906 L 85.210938 65.652344 M 118.21875 65.898438 C 118.613281 66.335938 119.589844 66.941406 119.398438 66.628906 C 119.34375 66.539062 118.964844 66.238281 118.5625 65.964844 C 117.835938 65.476562 117.832031 65.476562 118.21875 65.898438 M 71.929688 66.417969 C 71.597656 66.71875 71.425781 67.039062 71.371094 67.472656 L 71.289062 68.101562 L 71.609375 67.523438 C 72.152344 66.542969 73.019531 66.195312 73.832031 66.628906 C 74.378906 66.917969 74.339844 66.648438 73.785156 66.3125 C 73.066406 65.871094 72.5 65.902344 71.929688 66.417969 M 133.976562 66.234375 C 133.425781 66.53125 133.226562 66.917969 133.242188 67.660156 C 133.253906 68.277344 133.289062 68.25 133.453125 67.507812 C 133.644531 66.644531 135.066406 66.175781 135.890625 66.707031 C 136.164062 66.882812 136.128906 66.816406 135.765625 66.472656 C 135.199219 65.933594 134.65625 65.863281 133.976562 66.234375 M 81.84375 69.976562 C 81.84375 71.179688 81.867188 71.652344 81.898438 71.023438 C 81.929688 70.398438 81.929688 69.414062 81.898438 68.835938 C 81.867188 68.257812 81.84375 68.773438 81.84375 69.976562 M 137.714844 68.414062 C 137.386719 70.449219 134.585938 71.390625 132.867188 70.046875 L 132.210938 69.535156 L 132.832031 70.1875 C 134.050781 71.46875 136.054688 71.46875 137.246094 70.1875 C 137.753906 69.640625 138.289062 67.867188 137.949219 67.867188 C 137.867188 67.867188 137.765625 68.113281 137.714844 68.414062 M 63.332031 68.289062 C 62.707031 68.515625 62.390625 69.007812 62.410156 69.730469 C 62.425781 70.433594 62.425781 70.4375 62.550781 69.917969 C 62.804688 68.839844 64.089844 68.296875 65.007812 68.882812 L 65.441406 69.160156 L 64.984375 68.667969 C 64.53125 68.1875 63.964844 68.058594 63.332031 68.289062 M 142.816406 68.515625 C 142.363281 69.003906 142.132812 69.632812 142.308594 69.910156 C 142.421875 70.089844 142.449219 70.078125 142.453125 69.847656 C 142.460938 68.941406 143.882812 68.378906 144.878906 68.890625 L 145.347656 69.132812 L 144.9375 68.714844 C 144.339844 68.113281 143.285156 68.015625 142.816406 68.515625 M 75.664062 69.019531 C 74.664062 70.675781 72.816406 71.175781 71.265625 70.21875 C 70.46875 69.726562 70.457031 69.722656 70.835938 70.132812 C 72.367188 71.785156 75.410156 71.207031 76.066406 69.140625 C 76.167969 68.820312 76.265625 68.804688 78.171875 68.804688 C 79.839844 68.804688 80.167969 68.765625 80.167969 68.570312 C 80.167969 68.371094 79.835938 68.335938 78.121094 68.339844 L 76.074219 68.34375 L 75.664062 69.019531 M 127.476562 70.328125 L 127.511719 72.320312 L 127.558594 70.5625 L 127.609375 68.804688 L 129.710938 68.804688 C 131.515625 68.804688 131.800781 68.769531 131.722656 68.570312 C 131.648438 68.378906 131.253906 68.335938 129.539062 68.335938 L 127.445312 68.335938 L 127.476562 70.328125 M 146.863281 69.945312 C 146.820312 71.074219 145.640625 72.714844 144.878906 72.714844 C 144.675781 72.714844 144.648438 73.21875 144.679688 76.425781 L 144.714844 80.140625 L 144.769531 76.699219 L 144.820312 73.261719 L 145.472656 72.9375 C 146.5 72.429688 147.019531 71.464844 146.949219 70.195312 C 146.902344 69.347656 146.890625 69.308594 146.863281 69.945312 M 66.945312 70.398438 C 66.695312 71.265625 65.882812 72.277344 65.214844 72.554688 L 64.738281 72.75 L 64.773438 78.636719 L 64.8125 84.519531 L 64.855469 78.867188 L 64.898438 73.21875 L 65.363281 73.027344 C 66.375 72.605469 67.355469 71.003906 67.207031 70.003906 C 67.171875 69.765625 67.09375 69.882812 66.945312 70.398438 M 101.5625 71.019531 C 74.132812 73.234375 61.976562 107.425781 81.703125 126.878906 C 97.71875 142.671875 125.242188 137.578125 134.335938 117.136719 C 144.609375 94.046875 126.796875 68.980469 101.5625 71.019531 M 61.71875 72.164062 C 62.15625 72.785156 63.019531 73.308594 63.019531 72.957031 C 63.019531 72.824219 62.914062 72.714844 62.789062 72.714844 C 62.664062 72.714844 62.296875 72.484375 61.972656 72.203125 L 61.386719 71.695312 L 61.71875 72.164062 M 141.941406 72.382812 C 142.578125 73.003906 142.925781 73.179688 142.925781 72.878906 C 142.925781 72.800781 142.78125 72.691406 142.609375 72.632812 C 142.4375 72.578125 142.070312 72.355469 141.789062 72.136719 C 141.441406 71.859375 141.488281 71.9375 141.941406 72.382812 M 144.488281 82.972656 L 144.488281 84.789062 L 142.746094 87.3125 C 141.789062 88.699219 141 89.917969 140.988281 90.023438 C 140.933594 90.550781 141.34375 90.085938 142.917969 87.8125 L 144.644531 85.320312 L 144.644531 83.238281 C 144.644531 82.09375 144.609375 81.15625 144.566406 81.15625 C 144.523438 81.15625 144.488281 81.972656 144.488281 82.972656 M 90.226562 96.96875 C 92.074219 99.378906 93.78125 101.570312 94.015625 101.847656 L 94.445312 102.34375 L 94.40625 97.535156 L 94.371094 92.726562 L 96.539062 92.726562 C 98.449219 92.726562 98.691406 92.757812 98.609375 92.976562 C 98.558594 93.113281 98.515625 97.664062 98.515625 103.089844 L 98.515625 112.960938 L 98.085938 112.546875 C 97.847656 112.320312 96.105469 110.339844 94.214844 108.148438 C 92.320312 105.960938 90.726562 104.160156 90.671875 104.15625 C 90.476562 104.132812 90.511719 111.976562 90.707031 112.210938 C 90.863281 112.398438 90.554688 112.429688 88.644531 112.429688 L 86.394531 112.429688 L 86.4375 102.503906 C 86.46875 94.742188 86.519531 92.574219 86.671875 92.582031 C 86.777344 92.585938 88.378906 94.5625 90.226562 96.96875 M 110.398438 94.878906 L 110.398438 97.183594 L 107.976562 97.136719 L 105.550781 97.085938 L 105.550781 100.484375 L 107.074219 100.433594 C 107.914062 100.40625 108.863281 100.367188 109.1875 100.34375 L 109.773438 100.304688 L 109.773438 104.847656 L 105.539062 104.753906 L 105.585938 108.59375 L 105.628906 112.433594 L 103.363281 112.429688 L 101.09375 112.429688 L 101.136719 102.582031 L 101.175781 92.734375 L 105.671875 92.691406 C 108.140625 92.664062 110.21875 92.628906 110.28125 92.609375 C 110.347656 92.589844 110.398438 93.609375 110.398438 94.878906 M 123.535156 94.839844 L 123.535156 96.949219 L 119.859375 96.949219 L 119.894531 104.691406 L 119.933594 112.429688 L 115.480469 112.429688 L 115.523438 104.691406 L 115.566406 96.949219 L 111.824219 96.949219 L 111.777344 94.90625 C 111.75 93.777344 111.757812 92.828125 111.792969 92.792969 C 111.828125 92.757812 114.484375 92.726562 117.695312 92.726562 L 123.535156 92.726562 L 123.535156 94.839844 M 51.425781 94.84375 C 51.003906 95.070312 50.65625 95.792969 50.675781 96.386719 C 50.6875 96.652344 50.734375 96.621094 50.90625 96.222656 C 51.355469 95.199219 52.253906 94.867188 53.402344 95.296875 C 53.636719 95.386719 53.609375 95.316406 53.273438 95.011719 C 52.777344 94.550781 52.078125 94.488281 51.425781 94.84375 M 154.707031 94.761719 C 154.210938 94.960938 153.867188 95.542969 153.882812 96.164062 L 153.898438 96.714844 L 154.046875 96.203125 C 154.316406 95.265625 155.703125 94.761719 156.492188 95.316406 C 156.804688 95.535156 156.828125 95.535156 156.742188 95.308594 C 156.53125 94.757812 155.441406 94.464844 154.707031 94.761719 M 158.511719 96.714844 C 158.066406 98.898438 155.40625 99.945312 153.570312 98.664062 L 152.855469 98.164062 L 153.324219 98.667969 C 155.230469 100.703125 158.910156 99.335938 158.6875 96.671875 L 158.640625 96.089844 L 158.511719 96.714844 M 55.015625 97.632812 C 53.96875 99.402344 51.648438 99.757812 50.136719 98.378906 C 49.714844 97.992188 49.695312 97.988281 49.871094 98.324219 C 50.902344 100.320312 54.742188 99.914062 55.433594 97.734375 L 55.539062 97.40625 L 60.921875 97.515625 C 65.871094 97.617188 66.300781 97.605469 66.300781 97.367188 C 66.300781 97.132812 66 97.105469 63.433594 97.105469 C 61.855469 97.105469 59.410156 97.066406 58 97.015625 L 55.433594 96.925781 L 55.015625 97.632812 M 145.933594 97.066406 C 143.269531 97.109375 142.925781 97.144531 142.925781 97.371094 C 142.925781 97.601562 143.289062 97.617188 147.027344 97.523438 C 149.285156 97.46875 151.429688 97.421875 151.792969 97.421875 C 152.316406 97.421875 152.433594 97.371094 152.363281 97.183594 C 152.289062 96.992188 151.964844 96.957031 150.609375 96.988281 C 149.695312 97.007812 147.589844 97.042969 145.933594 97.066406 M 60.105469 100.300781 C 59.609375 100.519531 59.253906 101.195312 59.277344 101.859375 C 59.289062 102.152344 59.3125 102.140625 59.476562 101.773438 C 59.9375 100.734375 60.871094 100.3125 61.746094 100.746094 C 62.140625 100.945312 62.199219 100.945312 62.128906 100.757812 C 61.90625 100.183594 60.902344 99.957031 60.105469 100.300781 M 146.113281 100.300781 C 145.617188 100.519531 145.257812 101.195312 145.28125 101.859375 C 145.292969 102.152344 145.316406 102.140625 145.480469 101.773438 C 145.945312 100.726562 146.875 100.3125 147.761719 100.753906 C 148.210938 100.976562 148.230469 100.976562 148.085938 100.707031 C 147.792969 100.160156 146.871094 99.972656 146.113281 100.300781 M 149.933594 102.082031 C 149.566406 104.472656 146.664062 105.566406 144.769531 104.03125 L 144.253906 103.613281 L 144.722656 104.128906 C 146.703125 106.292969 150.324219 104.871094 150.089844 102.019531 L 150.039062 101.40625 L 149.933594 102.082031 M 63.617188 103.082031 C 62.734375 104.679688 60.628906 105.222656 59.097656 104.25 L 58.40625 103.808594 L 58.976562 104.355469 C 60.484375 105.796875 63.171875 105.257812 63.957031 103.359375 C 64.136719 102.921875 64.203125 102.894531 64.992188 102.894531 C 65.636719 102.894531 65.832031 102.839844 65.832031 102.660156 C 65.832031 102.476562 65.625 102.425781 64.90625 102.425781 L 63.980469 102.425781 L 63.617188 103.082031 M 143.394531 102.644531 C 143.394531 102.78125 143.503906 102.894531 143.640625 102.894531 C 143.917969 102.894531 143.867188 102.554688 143.578125 102.460938 C 143.476562 102.425781 143.394531 102.507812 143.394531 102.644531 M 39.890625 103.738281 C 39.414062 104 39.105469 104.5625 39.105469 105.160156 L 39.105469 105.628906 L 39.316406 105.148438 C 39.757812 104.128906 40.933594 103.679688 41.714844 104.230469 C 42.027344 104.449219 42.050781 104.449219 41.964844 104.222656 C 41.734375 103.628906 40.578125 103.355469 39.890625 103.738281 M 166.242188 103.738281 C 165.742188 104.011719 165.449219 104.574219 165.460938 105.238281 L 165.46875 105.785156 L 165.613281 105.289062 C 165.921875 104.226562 167.242188 103.65625 168.0625 104.230469 C 168.375 104.449219 168.398438 104.449219 168.3125 104.222656 C 168.085938 103.628906 166.929688 103.355469 166.242188 103.738281 M 43.808594 105.160156 C 43.707031 106.378906 43.058594 107.390625 42.042969 107.90625 L 41.4375 108.214844 L 41.472656 109.894531 L 41.503906 111.570312 L 41.605469 108.679688 L 42.207031 108.371094 C 43.335938 107.796875 44.042969 106.527344 43.898438 105.34375 C 43.863281 105.070312 43.824219 104.988281 43.808594 105.160156 M 170.105469 105.523438 C 169.964844 106.441406 169.347656 107.324219 168.496094 107.824219 L 167.789062 108.238281 L 167.789062 112.871094 L 167.296875 113.042969 C 166.996094 113.144531 165.46875 113.214844 163.410156 113.214844 C 152.628906 113.214844 142.15625 113.425781 142.070312 113.640625 C 141.96875 113.914062 166.539062 113.777344 167.433594 113.5 L 167.945312 113.34375 L 167.945312 108.683594 L 168.550781 108.375 C 169.683594 107.796875 170.378906 106.585938 170.261719 105.394531 L 170.210938 104.847656 L 170.105469 105.523438 M 38.625 107.660156 C 39.058594 108.128906 39.875 108.605469 39.875 108.394531 C 39.875 108.316406 39.503906 108.027344 39.054688 107.746094 C 38.257812 107.257812 38.246094 107.253906 38.625 107.660156 M 164.972656 107.640625 C 165.410156 108.136719 166.222656 108.613281 166.222656 108.375 C 166.222656 108.289062 165.996094 108.101562 165.714844 107.960938 C 165.4375 107.820312 165.066406 107.589844 164.894531 107.449219 C 164.699219 107.289062 164.726562 107.359375 164.972656 107.640625 M 40.1875 113.191406 C 40.1875 113.597656 41.753906 113.664062 54.222656 113.761719 C 65.625 113.855469 67.230469 113.839844 67.152344 113.640625 C 67.078125 113.441406 65.253906 113.394531 53.902344 113.300781 C 46.660156 113.242188 40.613281 113.15625 40.460938 113.113281 C 40.3125 113.070312 40.1875 113.105469 40.1875 113.191406 M 154.722656 123.300781 C 154.722656 126.996094 154.746094 128.488281 154.769531 126.613281 C 154.792969 124.734375 154.792969 121.710938 154.769531 119.886719 C 154.742188 118.066406 154.722656 119.601562 154.722656 123.300781 M 54.574219 120.992188 C 54.570312 127.65625 54.414062 131.703125 54.136719 132.015625 C 53.925781 132.261719 53.554688 132.289062 50.742188 132.289062 L 47.585938 132.289062 L 47.097656 133.070312 C 46.074219 134.71875 43.953125 135.097656 42.507812 133.890625 C 42.078125 133.53125 42.035156 133.519531 42.238281 133.808594 C 43.539062 135.691406 46.730469 135.277344 47.546875 133.121094 C 47.683594 132.761719 47.6875 132.761719 50.882812 132.761719 C 53.429688 132.761719 54.128906 132.714844 54.304688 132.539062 C 54.574219 132.265625 54.730469 128.46875 54.730469 122.007812 L 54.730469 117.59375 L 61.546875 117.59375 C 66.929688 117.59375 68.347656 117.550781 68.296875 117.398438 C 68.246094 117.246094 66.695312 117.191406 61.402344 117.160156 L 54.574219 117.121094 L 54.574219 120.992188 M 140.996094 117.226562 C 140.675781 117.546875 141.421875 117.59375 146.988281 117.59375 C 152.304688 117.59375 153.089844 117.5625 153.089844 117.359375 C 153.089844 117.109375 141.238281 116.984375 140.996094 117.226562 M 68.335938 122.855469 C 67.34375 123.492188 65.222656 124.867188 63.621094 125.914062 L 60.707031 127.816406 L 60.613281 128.511719 C 60.558594 128.894531 60.527344 129.917969 60.542969 130.789062 L 60.570312 132.367188 L 60.660156 130.457031 C 60.738281 128.820312 60.796875 128.503906 61.0625 128.25 C 61.398438 127.933594 69.777344 122.476562 70.148438 122.332031 C 70.382812 122.246094 70.445312 121.878906 70.25 121.765625 C 70.183594 121.726562 69.324219 122.21875 68.335938 122.855469 M 138.546875 122.542969 C 138.546875 122.617188 138.878906 122.882812 139.289062 123.136719 C 139.695312 123.394531 141.574219 124.605469 143.464844 125.832031 C 145.351562 127.054688 146.929688 128.027344 146.96875 127.984375 C 147.074219 127.882812 146.960938 127.804688 142.636719 124.992188 C 138.625 122.382812 138.546875 122.335938 138.546875 122.542969 M 148.617188 129.945312 C 148.617188 131.277344 148.640625 131.824219 148.671875 131.15625 C 148.699219 130.492188 148.699219 129.398438 148.671875 128.734375 C 148.640625 128.066406 148.617188 128.613281 148.617188 129.945312 M 43.816406 130.027344 C 43.28125 130.257812 42.773438 131.144531 42.890625 131.640625 C 42.9375 131.839844 42.992188 131.8125 43.117188 131.507812 C 43.523438 130.542969 44.417969 130.128906 45.296875 130.492188 L 45.894531 130.742188 L 45.503906 130.363281 C 44.992188 129.863281 44.449219 129.757812 43.816406 130.027344 M 162.828125 129.898438 C 162.230469 130.015625 161.6875 130.820312 161.703125 131.558594 C 161.71875 132.210938 161.722656 132.210938 161.839844 131.707031 C 162.140625 130.445312 163.492188 129.917969 164.410156 130.707031 C 164.691406 130.949219 164.695312 130.945312 164.511719 130.597656 C 164.359375 130.304688 163.402344 129.722656 163.21875 129.808594 C 163.195312 129.820312 163.019531 129.863281 162.828125 129.898438 M 166.253906 131.632812 C 166.164062 134.066406 163.558594 135.378906 161.453125 134.050781 L 160.828125 133.65625 L 161.21875 134.082031 C 163.132812 136.175781 166.488281 134.726562 166.339844 131.875 C 166.289062 130.910156 166.28125 130.886719 166.253906 131.632812 M 153.558594 132.191406 C 153.558594 132.234375 153.667969 132.378906 153.804688 132.515625 C 154.128906 132.839844 160.351562 132.890625 160.242188 132.566406 C 160.195312 132.417969 159.386719 132.363281 157.023438 132.339844 C 155.289062 132.324219 153.800781 132.265625 153.714844 132.210938 C 153.628906 132.160156 153.558594 132.152344 153.558594 132.191406 M 130.453125 133.152344 C 130.457031 133.496094 130.488281 133.617188 130.523438 133.421875 C 130.5625 133.226562 130.5625 132.945312 130.523438 132.796875 C 130.484375 132.648438 130.453125 132.808594 130.453125 133.152344 M 78.84375 133.628906 C 78.792969 135.183594 78.804688 135.175781 75.695312 135.238281 L 73.027344 135.292969 L 72.773438 135.828125 C 71.976562 137.503906 69.726562 138.09375 68.121094 137.046875 L 67.472656 136.625 L 67.867188 137.054688 C 69.320312 138.648438 72.210938 138.167969 73.027344 136.199219 L 73.21875 135.730469 L 75.210938 135.730469 C 78.902344 135.730469 79.03125 135.660156 78.925781 133.710938 L 78.871094 132.683594 L 78.84375 133.628906 M 69.089844 133.183594 C 68.605469 133.484375 68.332031 134.003906 68.339844 134.605469 L 68.347656 135.027344 L 68.554688 134.558594 C 69.027344 133.488281 70.1875 133.078125 71.011719 133.6875 C 71.433594 134 71.460938 134.003906 71.289062 133.726562 C 70.816406 132.972656 69.824219 132.730469 69.089844 133.183594 M 136.953125 133.183594 C 136.449219 133.496094 136.195312 134.011719 136.214844 134.683594 L 136.226562 135.183594 L 136.363281 134.734375 C 136.679688 133.679688 137.777344 133.136719 138.679688 133.585938 C 139.285156 133.886719 139.183594 133.550781 138.554688 133.179688 C 137.992188 132.847656 137.492188 132.851562 136.953125 133.183594 M 59.007812 134.039062 C 58.5625 134.253906 58.324219 134.824219 58.34375 135.621094 L 58.363281 136.277344 L 58.480469 135.660156 C 58.703125 134.515625 60.03125 133.921875 60.949219 134.566406 C 61.261719 134.785156 61.285156 134.785156 61.199219 134.558594 C 60.976562 133.980469 59.734375 133.683594 59.007812 134.039062 M 147.066406 134.035156 C 146.523438 134.332031 146.363281 134.671875 146.382812 135.488281 L 146.402344 136.277344 L 146.519531 135.660156 C 146.726562 134.574219 147.921875 133.976562 148.871094 134.484375 C 149.105469 134.609375 149.152344 134.597656 149.089844 134.425781 C 148.898438 133.929688 147.691406 133.695312 147.066406 134.035156 M 140.761719 135.335938 C 140.222656 137.394531 137.71875 138.242188 135.90625 136.980469 L 135.183594 136.476562 L 135.71875 137.039062 C 137.667969 139.082031 141.421875 137.566406 141.015625 134.898438 C 140.980469 134.667969 140.898438 134.8125 140.761719 135.335938 M 62.890625 135.625 C 62.796875 137.984375 59.832031 139.355469 57.953125 137.910156 L 57.308594 137.417969 L 58.042969 138.140625 L 58.777344 138.859375 L 59.992188 138.859375 C 62.019531 138.859375 63.085938 137.785156 62.976562 135.851562 C 62.929688 134.992188 62.917969 134.964844 62.890625 135.625 M 150.925781 135.539062 C 150.820312 138.121094 147.707031 139.425781 145.75 137.703125 L 145.371094 137.371094 L 145.621094 137.742188 C 147.292969 140.222656 151.257812 138.691406 151.015625 135.652344 L 150.957031 134.871094 L 150.925781 135.539062 M 129.371094 135.339844 C 129.402344 135.425781 129.628906 135.539062 129.878906 135.59375 C 131.308594 135.90625 135.597656 135.675781 134.597656 135.34375 C 134.144531 135.191406 129.320312 135.191406 129.371094 135.339844 M 84.027344 138 C 84.027344 138.773438 84.054688 139.109375 84.085938 138.746094 C 84.117188 138.382812 84.121094 137.75 84.085938 137.339844 C 84.054688 136.925781 84.027344 137.222656 84.027344 138 M 125.152344 138 C 125.152344 138.773438 125.179688 139.109375 125.210938 138.746094 C 125.246094 138.382812 125.246094 137.75 125.214844 137.339844 C 125.179688 136.925781 125.152344 137.222656 125.152344 138 M 82.277344 141.285156 C 81.847656 141.648438 81.480469 142.519531 81.679688 142.714844 C 81.722656 142.761719 81.871094 142.582031 82.007812 142.316406 C 82.445312 141.46875 83.554688 141.117188 84.246094 141.601562 C 84.5625 141.820312 84.585938 141.820312 84.496094 141.597656 C 84.226562 140.882812 82.960938 140.707031 82.277344 141.285156 M 123.707031 141.109375 C 123.207031 141.386719 122.917969 141.945312 122.929688 142.613281 L 122.9375 143.160156 L 123.078125 142.664062 C 123.390625 141.59375 124.457031 141.117188 125.457031 141.605469 L 125.957031 141.847656 L 125.445312 141.371094 C 124.890625 140.847656 124.328125 140.765625 123.707031 141.109375 M 98.273438 150.039062 C 98.273438 154.597656 98.292969 156.441406 98.320312 154.132812 C 98.34375 151.824219 98.34375 148.097656 98.320312 145.84375 C 98.292969 143.59375 98.273438 145.480469 98.273438 150.039062 M 111.097656 150.039062 C 111.097656 154.597656 111.117188 156.441406 111.140625 154.132812 C 111.164062 151.824219 111.164062 148.097656 111.140625 145.84375 C 111.117188 143.59375 111.097656 145.480469 111.097656 150.039062 M 86.304688 142.808594 C 86.0625 145.203125 83.421875 146.390625 81.378906 145.023438 L 80.765625 144.613281 L 81.300781 145.171875 C 83.238281 147.199219 86.589844 145.664062 86.441406 142.820312 L 86.394531 141.90625 L 86.304688 142.808594 M 127.519531 143.042969 C 127.046875 145.375 124.222656 146.421875 122.480469 144.910156 L 121.902344 144.410156 L 122.25 144.90625 C 123.785156 147.089844 127.269531 146.09375 127.679688 143.351562 C 127.796875 142.566406 127.664062 142.3125 127.519531 143.042969 M 96.6875 159.960938 C 96.078125 160.332031 95.851562 160.726562 95.863281 161.40625 L 95.875 161.921875 L 96.058594 161.382812 C 96.414062 160.355469 97.476562 159.902344 98.40625 160.382812 C 98.878906 160.628906 98.894531 160.628906 98.683594 160.375 C 98.101562 159.675781 97.398438 159.527344 96.6875 159.960938 M 109.675781 159.878906 C 109.023438 160.164062 108.675781 160.699219 108.699219 161.371094 C 108.714844 161.726562 108.746094 161.800781 108.789062 161.578125 C 108.984375 160.566406 110.234375 159.914062 111.148438 160.347656 C 111.847656 160.683594 111.574219 160.253906 110.847656 159.878906 C 110.328125 159.609375 110.296875 159.609375 109.675781 159.878906 M 113.394531 161.5 C 113.210938 164.023438 110.148438 165.320312 108.253906 163.675781 L 107.671875 163.175781 L 108.03125 163.6875 C 109.660156 166.003906 113.773438 164.546875 113.484375 161.753906 C 113.449219 161.417969 113.410156 161.300781 113.394531 161.5 M 100.421875 162.242188 C 99.824219 164.335938 97.046875 165.121094 95.402344 163.664062 L 95.027344 163.332031 L 95.308594 163.769531 C 96.726562 165.984375 101.242188 164.382812 100.660156 161.871094 C 100.625 161.71875 100.527344 161.871094 100.421875 162.242188 "/>
<path style=" stroke:none;fill-rule:evenodd;fill:rgb(62.745098%,80%,74.509804%);fill-opacity:1;" d="M 92.296875 45.457031 C 92.449219 45.496094 92.695312 45.496094 92.847656 45.457031 C 92.996094 45.417969 92.875 45.382812 92.574219 45.382812 C 92.273438 45.382812 92.148438 45.417969 92.296875 45.457031 M 114.816406 45.457031 C 114.96875 45.496094 115.214844 45.496094 115.363281 45.457031 C 115.515625 45.417969 115.390625 45.382812 115.089844 45.382812 C 114.789062 45.382812 114.664062 45.417969 114.816406 45.457031 M 96.050781 47.804688 C 96.289062 47.839844 96.675781 47.839844 96.910156 47.804688 C 97.148438 47.769531 96.953125 47.742188 96.480469 47.742188 C 96.007812 47.742188 95.816406 47.769531 96.050781 47.804688 M 110.75 47.804688 C 110.988281 47.839844 111.375 47.839844 111.609375 47.804688 C 111.847656 47.769531 111.652344 47.742188 111.179688 47.742188 C 110.707031 47.742188 110.515625 47.769531 110.75 47.804688 M 98.40625 50.585938 C 98.40625 51.101562 98.4375 51.292969 98.472656 51.011719 C 98.507812 50.734375 98.503906 50.308594 98.46875 50.074219 C 98.433594 49.839844 98.40625 50.070312 98.40625 50.585938 M 109.375 60.359375 C 109.375 62.984375 109.394531 64.054688 109.421875 62.746094 C 109.449219 61.433594 109.449219 59.285156 109.421875 57.976562 C 109.394531 56.664062 109.375 57.738281 109.375 60.359375 M 72.597656 64.539062 C 72.832031 64.574219 73.21875 64.574219 73.457031 64.539062 C 73.691406 64.5 73.5 64.472656 73.027344 64.472656 C 72.554688 64.472656 72.359375 64.5 72.597656 64.539062 M 134.207031 64.539062 C 134.441406 64.574219 134.828125 64.574219 135.066406 64.539062 C 135.304688 64.5 135.109375 64.472656 134.636719 64.472656 C 134.164062 64.472656 133.96875 64.5 134.207031 64.539062 M 79.867188 66.882812 C 80.058594 66.917969 80.378906 66.917969 80.570312 66.882812 C 80.765625 66.84375 80.605469 66.8125 80.21875 66.8125 C 79.832031 66.8125 79.671875 66.84375 79.867188 66.882812 M 127.25 66.882812 C 127.445312 66.917969 127.726562 66.917969 127.875 66.878906 C 128.023438 66.839844 127.867188 66.808594 127.523438 66.808594 C 127.175781 66.8125 127.054688 66.84375 127.25 66.882812 M 81.976562 68.570312 C 81.980469 68.914062 82.011719 69.035156 82.050781 68.839844 C 82.085938 68.648438 82.085938 68.363281 82.046875 68.214844 C 82.007812 68.066406 81.976562 68.226562 81.976562 68.570312 M 127.625 70.484375 C 127.652344 72.054688 127.714844 71.871094 127.789062 70.015625 C 127.816406 69.433594 127.78125 68.960938 127.71875 68.960938 C 127.652344 68.960938 127.609375 69.644531 127.625 70.484375 M 144.863281 77.484375 C 144.863281 78.6875 144.886719 79.160156 144.917969 78.53125 C 144.945312 77.902344 144.945312 76.917969 144.917969 76.34375 C 144.886719 75.765625 144.863281 76.277344 144.863281 77.484375 M 132.601562 76.828125 C 132.601562 76.855469 132.832031 77.082031 133.113281 77.335938 L 133.621094 77.796875 L 133.160156 77.285156 C 132.734375 76.8125 132.601562 76.707031 132.601562 76.828125 M 63.078125 82.957031 C 63.078125 83.988281 63.101562 84.390625 63.132812 83.847656 C 63.164062 83.308594 63.164062 82.464844 63.132812 81.972656 C 63.101562 81.480469 63.078125 81.921875 63.078125 82.957031 M 61.34375 95.503906 C 62.015625 95.53125 63.070312 95.53125 63.691406 95.503906 C 64.308594 95.472656 63.761719 95.449219 62.46875 95.449219 C 61.179688 95.449219 60.671875 95.472656 61.34375 95.503906 M 144.136719 95.503906 C 144.757812 95.53125 145.78125 95.53125 146.402344 95.503906 C 147.027344 95.472656 146.515625 95.449219 145.269531 95.449219 C 144.023438 95.449219 143.511719 95.472656 144.136719 95.503906 M 63.140625 97.691406 C 63.59375 97.722656 64.296875 97.722656 64.703125 97.691406 C 65.109375 97.660156 64.738281 97.632812 63.878906 97.632812 C 63.019531 97.632812 62.6875 97.660156 63.140625 97.691406 M 143.027344 97.679688 C 142.972656 97.738281 142.925781 97.859375 142.925781 97.953125 C 142.929688 98.058594 142.972656 98.050781 143.050781 97.933594 C 143.125 97.816406 143.699219 97.726562 144.570312 97.691406 L 145.972656 97.640625 L 144.554688 97.609375 C 143.773438 97.589844 143.085938 97.621094 143.027344 97.679688 M 64.386719 100.816406 C 64.582031 100.851562 64.863281 100.851562 65.011719 100.8125 C 65.164062 100.773438 65.003906 100.742188 64.660156 100.742188 C 64.316406 100.746094 64.195312 100.777344 64.386719 100.816406 M 65.722656 104.222656 C 65.722656 104.652344 65.753906 104.808594 65.789062 104.570312 C 65.824219 104.335938 65.824219 103.980469 65.785156 103.789062 C 65.75 103.597656 65.71875 103.792969 65.722656 104.222656 M 170.324219 105.550781 C 170.324219 105.851562 170.359375 105.976562 170.398438 105.824219 C 170.4375 105.675781 170.4375 105.429688 170.398438 105.277344 C 170.359375 105.128906 170.324219 105.25 170.324219 105.550781 M 60.792969 105.347656 C 60.984375 105.386719 61.265625 105.386719 61.417969 105.347656 C 61.566406 105.308594 61.40625 105.277344 61.0625 105.277344 C 60.71875 105.28125 60.597656 105.3125 60.792969 105.347656 M 146.796875 105.347656 C 146.992188 105.386719 147.273438 105.386719 147.421875 105.347656 C 147.570312 105.308594 147.410156 105.277344 147.066406 105.277344 C 146.722656 105.28125 146.601562 105.3125 146.796875 105.347656 M 39.746094 110.664062 C 39.730469 111.796875 39.773438 112.757812 39.835938 112.800781 C 39.902344 112.839844 39.933594 112.226562 39.910156 111.441406 C 39.835938 108.851562 39.777344 108.566406 39.746094 110.664062 M 166.066406 110.117188 C 166.023438 110.953125 166.042969 111.578125 166.113281 111.511719 C 166.179688 111.441406 166.214844 110.757812 166.191406 109.992188 L 166.144531 108.601562 L 166.066406 110.117188 M 42.339844 111.609375 C 42.703125 111.640625 43.300781 111.640625 43.667969 111.609375 C 44.03125 111.574219 43.734375 111.546875 43.003906 111.546875 C 42.273438 111.546875 41.972656 111.574219 42.339844 111.609375 M 142.453125 111.6875 C 142.453125 111.753906 144.652344 111.789062 147.339844 111.773438 C 152.207031 111.738281 151.652344 111.6875 145.621094 111.613281 C 143.878906 111.589844 142.453125 111.625 142.453125 111.6875 M 164.074219 111.609375 C 164.394531 111.640625 164.925781 111.640625 165.246094 111.609375 C 165.570312 111.574219 165.304688 111.546875 164.660156 111.546875 C 164.015625 111.546875 163.75 111.574219 164.074219 111.609375 M 58.277344 111.765625 C 59.753906 111.792969 62.21875 111.792969 63.75 111.765625 C 65.28125 111.742188 64.074219 111.71875 61.0625 111.71875 C 58.054688 111.71875 56.800781 111.742188 58.277344 111.765625 M 41.550781 113.796875 C 41.828125 113.828125 42.324219 113.832031 42.648438 113.796875 C 42.972656 113.761719 42.746094 113.734375 42.140625 113.734375 C 41.539062 113.734375 41.273438 113.761719 41.550781 113.796875 M 165.558594 113.796875 C 165.839844 113.832031 166.296875 113.832031 166.574219 113.796875 C 166.855469 113.761719 166.625 113.734375 166.066406 113.734375 C 165.507812 113.734375 165.28125 113.761719 165.558594 113.796875 M 63.222656 113.957031 C 63.976562 113.984375 65.175781 113.984375 65.878906 113.953125 C 66.585938 113.925781 65.964844 113.902344 64.503906 113.902344 C 63.042969 113.902344 62.464844 113.925781 63.222656 113.957031 M 142.957031 113.953125 C 143.53125 113.984375 144.519531 113.984375 145.144531 113.953125 C 145.773438 113.925781 145.300781 113.902344 144.097656 113.902344 C 142.894531 113.902344 142.378906 113.925781 142.957031 113.953125 M 52.925781 124.628906 C 52.925781 127.941406 52.945312 129.292969 52.972656 127.640625 C 52.996094 125.984375 52.996094 123.273438 52.972656 121.617188 C 52.945312 119.964844 52.925781 121.316406 52.925781 124.628906 M 153.152344 128.382812 C 153.152344 130.058594 153.175781 130.746094 153.203125 129.90625 C 153.234375 129.066406 153.234375 127.695312 153.203125 126.855469 C 153.175781 126.019531 153.152344 126.703125 153.152344 128.382812 M 148.757812 128.773438 C 148.757812 129.289062 148.789062 129.480469 148.824219 129.199219 C 148.859375 128.917969 148.859375 128.496094 148.820312 128.261719 C 148.785156 128.027344 148.757812 128.257812 148.757812 128.773438 M 147.050781 130.335938 C 147.050781 131.453125 147.074219 131.890625 147.105469 131.308594 C 147.136719 130.722656 147.136719 129.808594 147.105469 129.273438 C 147.074219 128.738281 147.050781 129.21875 147.050781 130.335938 M 76.460938 130.453125 C 77.109375 131.144531 77.246094 131.269531 77.246094 131.152344 C 77.246094 131.125 76.914062 130.792969 76.503906 130.40625 L 75.761719 129.710938 L 76.460938 130.453125 M 41.328125 131.351562 C 41.328125 131.824219 41.359375 132.019531 41.394531 131.78125 C 41.429688 131.546875 41.429688 131.160156 41.394531 130.921875 C 41.359375 130.6875 41.328125 130.878906 41.328125 131.351562 M 131.890625 131.234375 L 131.273438 131.898438 L 131.9375 131.28125 C 132.558594 130.707031 132.675781 130.570312 132.558594 130.570312 C 132.53125 130.570312 132.234375 130.871094 131.890625 131.234375 M 49.375 132.875 C 50.257812 132.90625 51.699219 132.90625 52.578125 132.875 C 53.460938 132.847656 52.742188 132.824219 50.976562 132.824219 C 49.214844 132.824219 48.492188 132.847656 49.375 132.875 M 155.550781 132.875 C 156.433594 132.90625 157.875 132.90625 158.757812 132.875 C 159.636719 132.847656 158.917969 132.824219 157.152344 132.824219 C 155.390625 132.824219 154.667969 132.847656 155.550781 132.875 M 79.03125 133.132812 C 78.984375 133.253906 78.976562 133.65625 79.007812 134.03125 C 79.066406 134.6875 79.070312 134.679688 79.097656 133.871094 L 79.125 133.023438 L 79.476562 133.320312 L 79.828125 133.621094 L 79.53125 133.269531 C 79.179688 132.855469 79.140625 132.84375 79.03125 133.132812 M 141.085938 135.105469 C 141.085938 135.40625 141.117188 135.53125 141.15625 135.378906 C 141.195312 135.226562 141.195312 134.984375 141.15625 134.832031 C 141.117188 134.679688 141.085938 134.804688 141.085938 135.105469 M 144.679688 135.417969 C 144.679688 135.71875 144.710938 135.84375 144.753906 135.691406 C 144.792969 135.542969 144.792969 135.296875 144.753906 135.144531 C 144.710938 134.992188 144.679688 135.117188 144.679688 135.417969 M 82.328125 137.449219 C 82.328125 138.554688 82.382812 139.421875 82.445312 139.382812 C 82.511719 139.34375 82.566406 138.472656 82.566406 137.449219 C 82.566406 136.429688 82.511719 135.558594 82.445312 135.519531 C 82.382812 135.480469 82.328125 136.347656 82.328125 137.449219 M 75.328125 135.84375 C 75.605469 135.878906 76.097656 135.878906 76.421875 135.84375 C 76.746094 135.8125 76.519531 135.78125 75.917969 135.78125 C 75.316406 135.78125 75.050781 135.808594 75.328125 135.84375 M 131.621094 135.84375 C 131.902344 135.878906 132.394531 135.878906 132.71875 135.84375 C 133.042969 135.8125 132.816406 135.78125 132.210938 135.78125 C 131.609375 135.78125 131.34375 135.808594 131.621094 135.84375 M 70.015625 138.1875 C 70.210938 138.222656 70.492188 138.222656 70.644531 138.183594 C 70.792969 138.144531 70.632812 138.113281 70.289062 138.117188 C 69.945312 138.117188 69.824219 138.148438 70.015625 138.1875 M 137.570312 138.1875 C 137.765625 138.222656 138.046875 138.222656 138.195312 138.183594 C 138.34375 138.144531 138.1875 138.113281 137.84375 138.117188 C 137.496094 138.117188 137.375 138.148438 137.570312 138.1875 M 121.230469 142.453125 C 121.230469 142.84375 121.261719 143 121.300781 142.808594 C 121.335938 142.613281 121.335938 142.296875 121.300781 142.101562 C 121.261719 141.910156 121.230469 142.066406 121.230469 142.453125 M 109.375 150.820312 C 109.375 154.949219 109.398438 156.617188 109.421875 154.523438 C 109.445312 152.433594 109.445312 149.054688 109.421875 147.019531 C 109.398438 144.980469 109.375 146.691406 109.375 150.820312 M 111.238281 156.839844 C 111.238281 157.660156 111.261719 157.992188 111.296875 157.585938 C 111.328125 157.175781 111.328125 156.507812 111.296875 156.097656 C 111.261719 155.691406 111.238281 156.023438 111.238281 156.839844 "/>
<path style=" stroke:none;fill-rule:evenodd;fill:rgb(98.431373%,85.882353%,4.313725%);fill-opacity:1;" d="M 91.398438 45.796875 C 89.394531 46.707031 88.867188 49.363281 90.40625 50.761719 C 91.863281 52.085938 93.988281 51.835938 95.160156 50.207031 C 95.652344 49.519531 95.800781 49.414062 96.261719 49.414062 L 96.792969 49.414062 L 96.792969 65.664062 L 96.128906 65.828125 C 94.195312 66.3125 93.457031 66.519531 92.101562 66.960938 C 91.285156 67.226562 90.074219 67.679688 89.40625 67.960938 L 88.195312 68.480469 L 88.195312 67.472656 C 88.195312 66.542969 88.226562 66.445312 88.625 66.199219 C 91.050781 64.695312 91.140625 61.78125 88.800781 60.613281 C 85.347656 58.894531 82.625 63.824219 85.875 65.910156 C 86.6875 66.433594 86.855469 66.90625 86.757812 68.402344 L 86.707031 69.167969 L 84.910156 70.253906 C 83.921875 70.847656 82.832031 71.542969 82.488281 71.796875 L 81.859375 72.257812 L 81.765625 69.800781 C 81.644531 66.714844 81.882812 66.925781 78.566406 66.925781 L 76.035156 66.925781 L 75.839844 66.460938 C 74.601562 63.464844 69.917969 64.273438 69.902344 67.492188 C 69.882812 70.890625 74.175781 71.820312 75.777344 68.765625 L 76.003906 68.335938 L 80.183594 68.335938 L 80.269531 68.765625 C 80.316406 69 80.3125 70.175781 80.261719 71.375 L 80.167969 73.558594 L 79.683594 73.949219 C 75.542969 77.308594 71.613281 82.523438 69.28125 87.773438 C 68.867188 88.699219 68.46875 89.46875 68.398438 89.476562 C 68.328125 89.484375 67.441406 88.300781 66.429688 86.847656 L 64.59375 84.207031 L 64.585938 78.5 L 64.582031 72.789062 L 65.277344 72.421875 C 67.253906 71.371094 67.503906 69.050781 65.804688 67.464844 L 65.03125 66.738281 L 63.816406 66.792969 C 60.667969 66.9375 59.65625 70.863281 62.367188 72.425781 L 62.972656 72.773438 L 63.074219 74.410156 C 63.128906 75.308594 63.175781 77.992188 63.175781 80.367188 L 63.175781 84.691406 L 67.832031 91.410156 L 66.683594 95.613281 L 62.699219 95.574219 C 60.511719 95.554688 57.9375 95.496094 56.988281 95.441406 L 55.257812 95.347656 L 54.886719 94.65625 C 53.679688 92.375 49.789062 92.835938 49.324219 95.316406 C 48.613281 99.105469 53.421875 100.738281 55.1875 97.300781 C 55.378906 96.925781 60.488281 96.789062 64.757812 97.050781 L 66.390625 97.152344 L 66.273438 98.183594 C 66.207031 98.753906 66.113281 99.605469 66.066406 100.078125 L 65.976562 100.9375 L 64.960938 100.886719 C 63.980469 100.835938 63.929688 100.8125 63.578125 100.261719 C 61.566406 97.109375 56.898438 98.953125 57.925781 102.492188 C 58.195312 103.421875 59.09375 104.378906 59.847656 104.542969 C 60.085938 104.597656 60.371094 104.667969 60.484375 104.703125 C 61.386719 104.980469 63.800781 103.496094 63.800781 102.660156 C 63.800781 102.472656 64.023438 102.425781 64.875 102.425781 L 65.949219 102.425781 L 65.878906 103.347656 C 65.761719 104.800781 66.253906 109.546875 66.71875 111.453125 L 66.804688 111.804688 L 58.839844 111.804688 C 54.457031 111.804688 48.75 111.757812 46.15625 111.703125 L 41.4375 111.597656 L 41.4375 108.089844 L 41.90625 107.898438 C 45.53125 106.394531 43.128906 100.890625 39.453125 102.277344 C 37.101562 103.167969 37.082031 106.933594 39.425781 107.90625 L 39.875 108.089844 L 39.875 110.410156 C 39.875 113.085938 39.800781 112.953125 41.4375 113.113281 C 41.996094 113.164062 47.960938 113.214844 54.6875 113.21875 C 64.039062 113.226562 66.945312 113.273438 67.039062 113.417969 C 67.195312 113.65625 67.703125 115.261719 67.707031 115.519531 C 67.707031 115.671875 66.167969 115.714844 60.527344 115.714844 C 54.949219 115.714844 53.3125 115.757812 53.214844 115.910156 C 53.144531 116.019531 53.066406 119.394531 53.039062 123.417969 L 52.988281 130.726562 L 47.585938 130.726562 L 47.097656 129.949219 C 45.390625 127.199219 41.238281 128.460938 41.46875 131.660156 C 41.695312 134.773438 46.042969 135.609375 47.222656 132.761719 L 47.398438 132.339844 L 50.710938 132.246094 C 53.605469 132.160156 54.046875 132.113281 54.21875 131.878906 C 54.371094 131.667969 54.417969 129.972656 54.417969 124.363281 L 54.417969 117.121094 L 61.335938 117.125 L 68.257812 117.128906 L 68.917969 118.722656 C 69.28125 119.59375 69.5625 120.320312 69.542969 120.328125 C 69.328125 120.441406 65.644531 122.820312 62.847656 124.65625 L 59.3125 126.976562 L 59.210938 128.734375 C 59.15625 129.703125 59.109375 130.925781 59.109375 131.453125 C 59.109375 132.34375 59.082031 132.421875 58.722656 132.511719 C 55.757812 133.253906 56.441406 138.183594 59.535156 138.359375 C 62.894531 138.550781 64.15625 134.621094 61.332031 132.765625 L 60.507812 132.222656 L 60.550781 130.035156 L 60.59375 127.851562 L 62 126.910156 C 64.515625 125.226562 70.089844 121.65625 70.199219 121.65625 C 70.261719 121.65625 70.429688 121.914062 70.582031 122.226562 C 71.460938 124.074219 73.75 127.285156 75.875 129.652344 L 77.246094 131.183594 L 77.246094 132.535156 C 77.246094 133.703125 77.214844 133.875 77 133.792969 C 76.863281 133.742188 75.898438 133.699219 74.851562 133.699219 L 72.949219 133.699219 L 72.636719 133.125 C 71.089844 130.289062 66.925781 131.277344 66.925781 134.480469 C 66.925781 137.394531 70.296875 138.578125 72.296875 136.367188 C 72.609375 136.015625 72.871094 135.632812 72.871094 135.515625 C 72.871094 135.34375 73.421875 135.277344 75.488281 135.191406 C 78.917969 135.050781 78.65625 135.171875 78.65625 133.765625 C 78.65625 132.378906 78.589844 132.394531 79.847656 133.460938 C 80.402344 133.933594 81.238281 134.585938 81.703125 134.90625 L 82.550781 135.496094 L 82.558594 137.453125 L 82.566406 139.40625 L 81.835938 139.792969 C 78.714844 141.449219 80.453125 146.226562 83.882812 145.4375 C 86.796875 144.769531 87.160156 140.765625 84.410156 139.628906 C 83.972656 139.445312 83.972656 139.4375 83.972656 137.976562 L 83.972656 136.507812 L 84.792969 136.992188 C 87.660156 138.6875 92.453125 140.59375 95.582031 141.28125 L 96.792969 141.546875 L 96.792969 149.390625 C 96.789062 158.027344 96.773438 158.335938 96.25 158.46875 C 93.984375 159.035156 93.84375 163.035156 96.054688 164.039062 C 99.691406 165.691406 102.34375 160.355469 98.789062 158.542969 L 98.203125 158.242188 L 98.203125 141.789062 L 98.789062 141.878906 C 101.667969 142.316406 107.902344 142.425781 109.109375 142.058594 L 109.460938 141.949219 L 109.460938 158.242188 L 108.851562 158.554688 C 106.058594 159.976562 107.109375 164.339844 110.242188 164.339844 C 113.632812 164.339844 114.359375 160.027344 111.257812 158.308594 C 110.953125 158.140625 110.945312 157.949219 110.894531 149.988281 L 110.84375 141.839844 L 111.207031 141.765625 C 116.210938 140.746094 119.316406 139.671875 123.574219 137.484375 C 123.636719 137.453125 123.691406 137.878906 123.691406 138.433594 C 123.691406 139.394531 123.667969 139.453125 123.253906 139.628906 C 120.570312 140.738281 120.859375 144.746094 123.671875 145.421875 C 127.167969 146.261719 128.964844 141.710938 125.882812 139.8125 L 125.097656 139.332031 L 125.097656 136.546875 L 125.910156 136.023438 C 126.355469 135.738281 127.199219 135.132812 127.789062 134.679688 C 129.046875 133.707031 128.972656 133.726562 129.035156 134.347656 C 129.105469 135.042969 129.25 135.082031 132.171875 135.195312 C 134.257812 135.273438 134.792969 135.339844 134.792969 135.511719 C 134.792969 135.632812 135.050781 136.015625 135.367188 136.367188 C 137.339844 138.550781 140.734375 137.40625 140.734375 134.5625 C 140.734375 131.269531 136.644531 130.253906 135.011719 133.136719 L 134.679688 133.71875 L 132.703125 133.714844 C 131.617188 133.710938 130.65625 133.707031 130.570312 133.703125 C 129.855469 133.679688 130.464844 132.542969 132.054688 130.945312 C 134.414062 128.574219 136.335938 126.082031 138.324219 122.808594 L 138.625 122.320312 L 141.75 124.347656 C 143.472656 125.464844 145.371094 126.703125 145.972656 127.105469 L 147.066406 127.835938 L 147.109375 130.027344 L 147.15625 132.222656 L 146.335938 132.765625 C 144.296875 134.113281 144.324219 137.035156 146.390625 138.089844 C 149.976562 139.921875 152.722656 134.703125 149.246094 132.667969 L 148.554688 132.261719 L 148.550781 130.203125 C 148.550781 126.679688 149.285156 127.511719 142.0625 122.859375 C 140.601562 121.917969 139.378906 121.125 139.347656 121.097656 C 139.320312 121.070312 139.664062 120.167969 140.117188 119.085938 L 140.941406 117.121094 L 153.234375 117.121094 L 153.28125 124.464844 C 153.308594 129.539062 153.375 131.859375 153.496094 131.976562 C 153.601562 132.085938 154.902344 132.183594 156.964844 132.246094 L 160.261719 132.339844 L 160.441406 132.761719 C 161.289062 134.8125 164.464844 135.089844 165.699219 133.222656 C 166.675781 131.75 166.269531 129.6875 164.847656 128.886719 C 163.199219 127.960938 160.28125 129 160.28125 130.515625 C 160.28125 130.683594 159.726562 130.726562 157.476562 130.726562 L 154.667969 130.726562 L 154.621094 123.417969 C 154.59375 119.394531 154.515625 116.019531 154.449219 115.910156 C 154.347656 115.757812 152.867188 115.714844 147.917969 115.714844 C 142.902344 115.714844 141.515625 115.671875 141.515625 115.519531 C 141.519531 115.414062 141.648438 114.867188 141.804688 114.308594 L 142.09375 113.292969 L 154.589844 113.214844 C 164.363281 113.152344 167.160156 113.089844 167.433594 112.933594 C 167.777344 112.738281 167.789062 112.65625 167.789062 110.402344 C 167.789062 108.1875 167.804688 108.070312 168.109375 107.972656 C 170.539062 107.199219 170.609375 103.183594 168.207031 102.277344 C 164.53125 100.886719 162.148438 106.402344 165.773438 107.90625 L 166.222656 108.089844 L 166.222656 111.597656 L 161.507812 111.703125 C 158.914062 111.757812 153.554688 111.804688 149.601562 111.804688 L 142.414062 111.804688 L 142.519531 111.296875 C 142.890625 109.453125 143.367188 104.6875 143.390625 102.539062 C 143.394531 102.226562 143.847656 102.480469 144.019531 102.890625 C 144.441406 103.914062 146.296875 104.976562 147.179688 104.703125 C 147.289062 104.667969 147.574219 104.597656 147.808594 104.546875 C 149.550781 104.164062 150.472656 101.570312 149.40625 100.050781 C 147.980469 98.027344 145.441406 98.132812 144.078125 100.273438 C 143.714844 100.84375 143.242188 101.058594 143.230469 100.664062 C 143.226562 100.558594 143.132812 99.730469 143.019531 98.828125 C 142.902344 97.925781 142.835938 97.136719 142.867188 97.082031 C 142.902344 97.023438 145.035156 96.96875 147.609375 96.957031 L 152.292969 96.9375 L 152.519531 97.375 C 154.0625 100.324219 158.445312 99.425781 158.425781 96.164062 C 158.410156 93.058594 154.214844 91.9375 152.773438 94.652344 L 152.410156 95.34375 L 150.910156 95.441406 C 150.085938 95.496094 147.855469 95.542969 145.953125 95.542969 L 142.492188 95.542969 L 142.160156 94.214844 C 141.976562 93.484375 141.617188 92.3125 141.359375 91.605469 C 140.742188 89.921875 140.644531 90.242188 142.691406 87.289062 L 144.488281 84.695312 L 144.488281 80.839844 C 144.488281 78.71875 144.535156 76.039062 144.589844 74.886719 L 144.695312 72.789062 L 145.40625 72.320312 C 147.992188 70.617188 146.953125 66.933594 143.847656 66.792969 L 142.632812 66.738281 L 141.847656 67.472656 C 140.175781 69.035156 140.433594 71.386719 142.386719 72.421875 L 143.082031 72.789062 L 143.082031 84.152344 L 141.710938 86.167969 C 140.960938 87.273438 140.308594 88.183594 140.261719 88.1875 C 140.21875 88.191406 139.839844 87.507812 139.425781 86.667969 C 136.929688 81.625 132.527344 76.152344 128.578125 73.179688 L 127.445312 72.324219 L 127.445312 71.527344 C 127.445312 71.085938 127.398438 70.1875 127.34375 69.53125 L 127.242188 68.335938 L 131.65625 68.335938 L 131.886719 68.777344 C 133.476562 71.851562 137.777344 70.898438 137.761719 67.476562 C 137.742188 64.292969 133.109375 63.457031 131.875 66.417969 L 131.660156 66.925781 L 129.113281 66.925781 C 125.851562 66.925781 126.035156 66.796875 125.921875 69.242188 C 125.871094 70.289062 125.816406 71.148438 125.792969 71.148438 C 125.773438 71.148438 125.292969 70.867188 124.726562 70.527344 C 124.164062 70.183594 123.101562 69.601562 122.367188 69.238281 L 121.03125 68.578125 L 121.03125 67.449219 C 121.03125 66.460938 121.070312 66.3125 121.34375 66.222656 C 123.9375 65.402344 123.734375 61.105469 121.066406 60.367188 C 117.363281 59.339844 115.695312 64.128906 119.039062 66.199219 C 119.570312 66.53125 119.71875 68.007812 119.195312 67.78125 C 118.050781 67.289062 115.148438 66.386719 113.382812 65.980469 C 112.214844 65.707031 111.171875 65.460938 111.0625 65.429688 C 110.910156 65.386719 110.867188 63.644531 110.867188 57.394531 L 110.867188 49.414062 L 111.402344 49.414062 C 111.863281 49.414062 112.007812 49.519531 112.503906 50.207031 C 114.550781 53.058594 118.976562 51.144531 118.050781 47.804688 C 117.292969 45.082031 113.34375 44.804688 112.265625 47.402344 C 112.085938 47.835938 112.042969 47.851562 111 47.851562 C 109.488281 47.851562 109.582031 47.269531 109.496094 56.949219 L 109.421875 65.191406 L 108.464844 65.125 C 105.828125 64.941406 104.652344 64.925781 102.5 65.054688 C 101.210938 65.128906 99.722656 65.238281 99.191406 65.296875 L 98.222656 65.40625 L 98.167969 57.058594 C 98.105469 47.242188 98.203125 47.851562 96.660156 47.851562 C 95.621094 47.851562 95.574219 47.835938 95.394531 47.402344 C 94.777344 45.90625 92.855469 45.132812 91.398438 45.796875 M 93.683594 47.476562 C 94.203125 47.972656 94.328125 48.554688 94.058594 49.199219 C 93.375 50.835938 91 50.375 91.011719 48.605469 C 91.023438 47.097656 92.597656 46.433594 93.683594 47.476562 M 115.796875 47.160156 C 117.421875 47.929688 116.820312 50.195312 114.992188 50.195312 C 113.433594 50.195312 112.945312 47.753906 114.382812 47.128906 C 115 46.859375 115.175781 46.863281 115.796875 47.160156 M 88.5625 62.152344 C 89.195312 62.738281 89.160156 63.929688 88.496094 64.488281 C 87.410156 65.402344 85.847656 64.71875 85.847656 63.332031 C 85.847656 61.949219 87.550781 61.210938 88.5625 62.152344 M 121.355469 62.222656 C 122.804688 63.675781 120.738281 65.8125 119.167969 64.488281 C 118.5 63.929688 118.464844 62.738281 119.101562 62.152344 C 119.71875 61.578125 120.746094 61.613281 121.355469 62.222656 M 74.078125 66.492188 C 75.246094 67.585938 74 69.617188 72.476562 69.117188 C 71.386719 68.753906 71 67.664062 71.613281 66.660156 C 72.140625 65.792969 73.25 65.71875 74.078125 66.492188 M 135.902344 66.472656 C 137.097656 67.753906 135.683594 69.785156 134.117188 69.042969 C 132.519531 68.285156 133.042969 65.988281 134.808594 65.988281 C 135.324219 65.988281 135.539062 66.085938 135.902344 66.472656 M 64.746094 68.378906 C 66.136719 69.472656 65.496094 71.304688 63.722656 71.304688 C 62.296875 71.304688 61.734375 69.070312 62.980469 68.347656 C 63.355469 68.128906 64.453125 68.148438 64.746094 68.378906 M 144.753906 68.414062 C 145.925781 69.234375 145.320312 71.304688 143.914062 71.304688 C 142.347656 71.304688 141.632812 69.867188 142.628906 68.730469 C 143.175781 68.109375 144.117188 67.96875 144.753906 68.414062 M 108.285156 71 C 128.527344 73.320312 141.699219 93.277344 135.964844 112.941406 C 130.675781 131.085938 110.601562 140.910156 92.746094 134.09375 C 77.265625 128.1875 68.695312 111.273438 72.972656 95.074219 C 77.097656 79.460938 92.210938 69.160156 108.285156 71 M 86.59375 102.429688 C 86.570312 107.886719 86.550781 112.351562 86.550781 112.351562 C 86.550781 112.351562 87.46875 112.332031 88.585938 112.304688 L 90.617188 112.257812 L 90.570312 109.570312 C 90.546875 108.089844 90.546875 106.222656 90.570312 105.414062 L 90.617188 103.953125 L 94.441406 108.347656 C 96.546875 110.765625 98.320312 112.746094 98.386719 112.746094 C 98.453125 112.746094 98.527344 108.242188 98.550781 102.738281 L 98.59375 92.726562 L 94.371094 92.726562 L 94.40625 97.613281 C 94.4375 101.515625 94.40625 102.453125 94.25 102.257812 C 94.144531 102.125 92.484375 99.980469 90.554688 97.488281 C 88.632812 95 86.960938 92.863281 86.84375 92.738281 C 86.667969 92.546875 86.628906 94.113281 86.59375 102.429688 M 101.246094 92.921875 C 101.207031 93.03125 101.15625 97.445312 101.132812 102.738281 L 101.09375 112.351562 L 105.472656 112.351562 L 105.472656 104.691406 L 109.773438 104.691406 L 109.773438 100.46875 L 105.382812 100.5625 L 105.429688 98.796875 L 105.472656 97.027344 L 110.242188 97.027344 L 110.242188 92.746094 L 105.78125 92.734375 C 102.296875 92.722656 101.304688 92.765625 101.246094 92.921875 M 111.804688 94.761719 L 111.804688 96.792969 L 115.566406 96.792969 L 115.523438 104.574219 L 115.480469 112.351562 L 119.859375 112.351562 L 119.816406 104.574219 L 119.777344 96.792969 L 123.535156 96.792969 L 123.535156 92.726562 L 111.804688 92.726562 L 111.804688 94.761719 M 52.765625 94.605469 C 53.695312 94.605469 54.121094 96.382812 53.398438 97.238281 C 52.128906 98.746094 49.785156 96.867188 50.917969 95.25 C 51.207031 94.839844 52.042969 94.421875 52.359375 94.53125 C 52.472656 94.574219 52.65625 94.605469 52.765625 94.605469 M 155.964844 94.667969 C 157.734375 95.40625 156.972656 98.21875 155.113281 97.808594 C 153.546875 97.464844 153.464844 94.859375 155.015625 94.558594 C 155.203125 94.519531 155.375 94.480469 155.398438 94.46875 C 155.425781 94.457031 155.679688 94.546875 155.964844 94.667969 M 61.933594 100.535156 C 62.5625 101.164062 62.585938 102.191406 61.980469 102.792969 C 61.375 103.398438 60.351562 103.378906 59.722656 102.75 C 58.714844 101.742188 59.402344 100.078125 60.828125 100.078125 C 61.339844 100.078125 61.578125 100.175781 61.933594 100.535156 M 147.941406 100.535156 C 149.21875 101.816406 147.726562 103.777344 145.980469 103.109375 C 144.605469 102.582031 145.308594 100.078125 146.832031 100.078125 C 147.34375 100.078125 147.582031 100.175781 147.941406 100.535156 M 41.410156 103.679688 C 42.953125 104.621094 42.398438 106.644531 40.597656 106.644531 C 38.886719 106.644531 38.496094 104.28125 40.089844 103.585938 C 40.738281 103.304688 40.804688 103.308594 41.410156 103.679688 M 167.917969 103.777344 C 169.234375 104.628906 168.589844 106.644531 167 106.644531 C 166.023438 106.644531 165.441406 106.109375 165.441406 105.207031 C 165.441406 103.726562 166.710938 102.996094 167.917969 103.777344 M 45.210938 130.035156 C 46.207031 130.550781 46.351562 131.945312 45.480469 132.675781 C 43.890625 134.015625 41.90625 131.789062 43.378906 130.320312 C 43.972656 129.726562 44.464844 129.648438 45.210938 130.035156 M 164.285156 130.320312 C 165.785156 131.824219 163.722656 134.046875 162.140625 132.632812 C 161.050781 131.660156 161.8125 129.8125 163.308594 129.792969 C 163.609375 129.789062 163.921875 129.960938 164.285156 130.320312 M 70.910156 133.269531 C 71.785156 134.035156 71.667969 135.378906 70.679688 135.917969 C 69.753906 136.421875 68.839844 136.050781 68.390625 134.988281 C 67.785156 133.566406 69.730469 132.238281 70.910156 133.269531 M 138.683594 133.171875 C 139.53125 133.765625 139.597656 134.863281 138.828125 135.683594 C 137.871094 136.707031 136.199219 135.984375 136.199219 134.546875 C 136.199219 133.214844 137.621094 132.429688 138.683594 133.171875 M 60.878906 134.175781 C 61.679688 134.804688 61.574219 136.191406 60.679688 136.71875 C 59.34375 137.507812 57.871094 136.40625 58.308594 134.945312 C 58.632812 133.867188 59.976562 133.464844 60.878906 134.175781 M 148.820312 134.089844 C 149.648438 134.671875 149.644531 136.171875 148.8125 136.679688 C 147.5 137.480469 146.015625 136.519531 146.292969 135.042969 C 146.488281 134 147.917969 133.460938 148.820312 134.089844 M 84.246094 141.242188 C 85.378906 142.449219 84.777344 144.117188 83.226562 144.082031 C 81.085938 144.035156 81.117188 140.890625 83.253906 140.890625 C 83.738281 140.890625 84.003906 140.984375 84.246094 141.242188 M 125.554688 141.371094 C 126.597656 142.414062 125.90625 144.050781 124.40625 144.082031 C 123.429688 144.101562 122.910156 143.566406 122.910156 142.535156 C 122.910156 140.996094 124.484375 140.300781 125.554688 141.371094 M 98.214844 159.921875 C 98.882812 160.320312 99.207031 161.09375 98.984375 161.769531 C 98.398438 163.539062 95.871094 163.179688 95.859375 161.328125 C 95.851562 159.976562 97.070312 159.246094 98.214844 159.921875 M 111.027344 159.890625 C 111.59375 160.183594 111.804688 160.566406 111.804688 161.296875 C 111.804688 163.195312 109.277344 163.578125 108.679688 161.769531 C 108.234375 160.425781 109.738281 159.226562 111.027344 159.890625 "/>
<path style=" stroke:none;fill-rule:evenodd;fill:rgb(78.431373%,78.823529%,40.784314%);fill-opacity:1;" d="M 96.710938 57.859375 C 96.710938 62.199219 96.730469 63.976562 96.753906 61.804688 C 96.78125 59.632812 96.78125 56.082031 96.753906 53.910156 C 96.730469 51.738281 96.710938 53.515625 96.710938 57.859375 M 78.382812 66.882812 C 78.621094 66.917969 78.972656 66.917969 79.164062 66.882812 C 79.359375 66.84375 79.164062 66.816406 78.734375 66.816406 C 78.304688 66.816406 78.144531 66.847656 78.382812 66.882812 M 128.578125 66.882812 C 128.816406 66.917969 129.167969 66.917969 129.359375 66.882812 C 129.554688 66.84375 129.359375 66.816406 128.929688 66.816406 C 128.5 66.816406 128.339844 66.847656 128.578125 66.882812 M 142.996094 78.734375 C 142.996094 81.828125 143.015625 83.117188 143.039062 81.597656 C 143.066406 80.078125 143.066406 77.542969 143.042969 75.96875 C 143.015625 74.394531 142.996094 75.636719 142.996094 78.734375 M 131.507812 75.734375 C 131.507812 75.761719 131.738281 75.988281 132.015625 76.242188 L 132.527344 76.699219 L 132.066406 76.191406 C 131.636719 75.71875 131.507812 75.613281 131.507812 75.734375 M 63.074219 79.359375 C 63.074219 80.21875 63.101562 80.550781 63.132812 80.097656 C 63.164062 79.640625 63.164062 78.9375 63.132812 78.53125 C 63.101562 78.128906 63.074219 78.5 63.074219 79.359375 M 58.835938 95.5 C 59.070312 95.535156 59.457031 95.535156 59.695312 95.5 C 59.929688 95.464844 59.738281 95.433594 59.265625 95.433594 C 58.792969 95.433594 58.597656 95.464844 58.835938 95.5 M 147.96875 95.5 C 148.203125 95.535156 148.589844 95.535156 148.828125 95.5 C 149.0625 95.464844 148.871094 95.433594 148.398438 95.433594 C 147.925781 95.433594 147.730469 95.464844 147.96875 95.5 M 168.003906 110.945312 C 168.003906 112.148438 168.03125 112.621094 168.058594 111.996094 C 168.089844 111.367188 168.089844 110.382812 168.058594 109.804688 C 168.03125 109.226562 168.003906 109.742188 168.003906 110.945312 M 51.71875 111.765625 C 52.429688 111.796875 53.589844 111.796875 54.300781 111.765625 C 55.011719 111.738281 54.429688 111.714844 53.011719 111.714844 C 51.589844 111.714844 51.011719 111.738281 51.71875 111.765625 M 153.519531 111.765625 C 154.226562 111.796875 155.390625 111.796875 156.097656 111.765625 C 156.808594 111.738281 156.226562 111.714844 154.808594 111.714844 C 153.390625 111.714844 152.808594 111.738281 153.519531 111.765625 M 55.472656 117.707031 C 55.925781 117.738281 56.664062 117.738281 57.113281 117.707031 C 57.566406 117.675781 57.195312 117.648438 56.292969 117.648438 C 55.390625 117.648438 55.023438 117.675781 55.472656 117.707031 M 150.941406 117.707031 C 151.355469 117.738281 151.988281 117.738281 152.351562 117.707031 C 152.714844 117.671875 152.378906 117.648438 151.601562 117.648438 C 150.828125 117.648438 150.53125 117.675781 150.941406 117.707031 M 48.828125 130.6875 C 49.578125 130.714844 50.8125 130.714844 51.5625 130.6875 C 52.316406 130.660156 51.699219 130.636719 50.195312 130.636719 C 48.691406 130.636719 48.074219 130.660156 48.828125 130.6875 M 156.261719 130.6875 C 157.019531 130.714844 158.214844 130.714844 158.921875 130.6875 C 159.625 130.65625 159.007812 130.632812 157.546875 130.632812 C 156.082031 130.636719 155.507812 130.660156 156.261719 130.6875 M 96.710938 148.632812 C 96.710938 152.503906 96.730469 154.0625 96.753906 152.101562 C 96.78125 150.136719 96.78125 146.972656 96.753906 145.0625 C 96.730469 143.15625 96.710938 144.761719 96.710938 148.632812 M 98.398438 143.472656 C 98.398438 143.816406 98.429688 143.9375 98.46875 143.742188 C 98.507812 143.550781 98.503906 143.265625 98.464844 143.117188 C 98.425781 142.96875 98.394531 143.128906 98.398438 143.472656 "/>
<path style=" stroke:none;fill-rule:evenodd;fill:rgb(82.745098%,70.588235%,23.529412%);fill-opacity:1;" d="M 98.425781 60.828125 C 98.425781 63.367188 98.449219 64.402344 98.476562 63.136719 C 98.5 61.867188 98.5 59.789062 98.476562 58.523438 C 98.449219 57.253906 98.425781 58.292969 98.425781 60.828125 M 77.292969 68.921875 C 77.878906 68.949219 78.792969 68.949219 79.328125 68.917969 C 79.859375 68.890625 79.382812 68.863281 78.265625 68.863281 C 77.144531 68.863281 76.710938 68.890625 77.292969 68.921875 M 128.734375 68.917969 C 129.3125 68.949219 130.265625 68.949219 130.84375 68.917969 C 131.425781 68.890625 130.949219 68.863281 129.789062 68.863281 C 128.628906 68.863281 128.152344 68.890625 128.734375 68.917969 M 57.035156 97.53125 C 57.230469 97.566406 57.546875 97.566406 57.742188 97.53125 C 57.933594 97.492188 57.777344 97.460938 57.386719 97.460938 C 57 97.460938 56.84375 97.492188 57.035156 97.53125 M 150.550781 97.53125 C 150.832031 97.566406 151.253906 97.566406 151.488281 97.53125 C 151.722656 97.496094 151.492188 97.46875 150.976562 97.46875 C 150.460938 97.46875 150.269531 97.5 150.550781 97.53125 M 64.464844 103 C 64.613281 103.039062 64.859375 103.039062 65.011719 103 C 65.160156 102.960938 65.039062 102.929688 64.738281 102.929688 C 64.4375 102.929688 64.3125 102.960938 64.464844 103 M 41.660156 108.730469 C 41.617188 108.84375 41.601562 109.53125 41.628906 110.253906 L 41.675781 111.570312 L 41.753906 110.046875 C 41.828125 108.53125 41.816406 108.332031 41.660156 108.730469 M 47.03125 113.792969 C 47.226562 113.832031 47.507812 113.828125 47.65625 113.789062 C 47.804688 113.75 47.648438 113.71875 47.300781 113.722656 C 46.957031 113.722656 46.835938 113.757812 47.03125 113.792969 M 48.753906 113.796875 C 49.207031 113.828125 49.914062 113.828125 50.316406 113.796875 C 50.722656 113.765625 50.351562 113.738281 49.492188 113.738281 C 48.632812 113.738281 48.300781 113.765625 48.753906 113.796875 M 157.898438 113.796875 C 158.347656 113.828125 159.085938 113.828125 159.539062 113.796875 C 159.988281 113.765625 159.621094 113.742188 158.71875 113.742188 C 157.816406 113.742188 157.445312 113.765625 157.898438 113.796875 M 160.632812 113.789062 C 160.785156 113.828125 161.03125 113.828125 161.179688 113.789062 C 161.332031 113.75 161.207031 113.71875 160.90625 113.71875 C 160.605469 113.71875 160.484375 113.75 160.632812 113.789062 M 154.875 124.003906 C 154.875 125.59375 154.898438 126.246094 154.925781 125.449219 C 154.953125 124.652344 154.953125 123.351562 154.925781 122.554688 C 154.898438 121.761719 154.875 122.410156 154.875 124.003906 M 60.730469 130.882812 C 60.730469 131.699219 60.753906 132.035156 60.789062 131.625 C 60.820312 131.21875 60.820312 130.550781 60.789062 130.140625 C 60.753906 129.730469 60.730469 130.066406 60.730469 130.882812 M 54.613281 130.960938 C 54.613281 131.304688 54.648438 131.429688 54.683594 131.234375 C 54.722656 131.039062 54.71875 130.757812 54.679688 130.609375 C 54.640625 130.457031 54.613281 130.617188 54.613281 130.960938 M 125.308594 137.921875 C 125.308594 138.738281 125.335938 139.070312 125.367188 138.664062 C 125.402344 138.253906 125.402344 137.585938 125.367188 137.175781 C 125.335938 136.769531 125.308594 137.101562 125.308594 137.921875 M 98.429688 151.132812 C 98.429688 155.089844 98.449219 156.6875 98.476562 154.679688 C 98.5 152.675781 98.5 149.4375 98.476562 147.488281 C 98.449219 145.535156 98.429688 147.175781 98.429688 151.132812 "/>
<path style=" stroke:none;fill-rule:evenodd;fill:rgb(96.862745%,78.039216%,1.960784%);fill-opacity:1;" d="M 110.902344 57.339844 C 110.882812 61.742188 110.921875 65.378906 110.984375 65.417969 C 111.089844 65.484375 111.089844 59.675781 110.980469 52.226562 C 110.957031 50.636719 110.921875 52.9375 110.902344 57.339844 M 123.261719 63.253906 C 123.261719 63.597656 123.292969 63.71875 123.332031 63.523438 C 123.371094 63.328125 123.367188 63.046875 123.328125 62.898438 C 123.289062 62.75 123.257812 62.910156 123.261719 63.253906 M 88.382812 66.332031 C 88.277344 66.4375 88.203125 66.664062 88.210938 66.839844 C 88.230469 67.15625 88.230469 67.15625 88.308594 66.847656 C 88.347656 66.675781 88.457031 66.449219 88.542969 66.339844 C 88.746094 66.089844 88.628906 66.085938 88.382812 66.332031 M 127.335938 69.117188 C 127.335938 69.589844 127.363281 69.78125 127.398438 69.546875 C 127.433594 69.308594 127.433594 68.921875 127.398438 68.6875 C 127.363281 68.449219 127.335938 68.644531 127.335938 69.117188 M 66.964844 69.742188 C 66.964844 70.042969 66.996094 70.164062 67.035156 70.015625 C 67.074219 69.863281 67.074219 69.617188 67.035156 69.46875 C 66.996094 69.316406 66.964844 69.441406 66.964844 69.742188 M 74.96875 69.78125 L 74.511719 70.289062 L 75.019531 69.828125 C 75.300781 69.578125 75.527344 69.347656 75.527344 69.320312 C 75.527344 69.199219 75.398438 69.308594 74.96875 69.78125 M 102.386719 70.945312 C 102.582031 70.984375 102.863281 70.984375 103.011719 70.945312 C 103.160156 70.90625 103.003906 70.875 102.660156 70.875 C 102.316406 70.878906 102.191406 70.910156 102.386719 70.945312 M 106.609375 70.945312 C 106.804688 70.984375 107.085938 70.984375 107.234375 70.945312 C 107.382812 70.90625 107.222656 70.875 106.878906 70.875 C 106.535156 70.878906 106.414062 70.910156 106.609375 70.945312 M 64.652344 78.5 C 64.652344 81.722656 64.671875 83.042969 64.699219 81.429688 C 64.722656 79.816406 64.722656 77.179688 64.699219 75.566406 C 64.671875 73.953125 64.652344 75.273438 64.652344 78.5 M 144.554688 78.34375 C 144.554688 79.933594 144.574219 80.585938 144.605469 79.789062 C 144.632812 78.992188 144.632812 77.691406 144.605469 76.894531 C 144.574219 76.101562 144.554688 76.75 144.554688 78.34375 M 81.3125 80.453125 C 80.671875 81.097656 80.183594 81.625 80.226562 81.625 C 80.269531 81.625 80.828125 81.097656 81.46875 80.453125 C 82.109375 79.808594 82.597656 79.28125 82.554688 79.28125 C 82.511719 79.28125 81.953125 79.808594 81.3125 80.453125 M 127.597656 80.296875 C 127.890625 80.597656 128.164062 80.84375 128.207031 80.84375 C 128.25 80.84375 128.046875 80.597656 127.757812 80.296875 C 127.464844 79.996094 127.191406 79.75 127.148438 79.75 C 127.105469 79.75 127.308594 79.996094 127.597656 80.296875 M 86.546875 102.34375 C 86.546875 107.765625 86.566406 109.957031 86.589844 107.222656 C 86.613281 104.484375 86.613281 100.050781 86.589844 97.371094 C 86.566406 94.6875 86.546875 96.925781 86.546875 102.34375 M 109.992188 92.753906 C 109.925781 92.863281 109.949219 92.890625 110.0625 92.820312 C 110.195312 92.738281 110.242188 93.277344 110.242188 94.871094 L 110.242188 97.027344 L 105.472656 97.027344 L 105.464844 98.789062 L 105.457031 100.546875 L 105.507812 98.816406 L 105.5625 97.085938 L 107.980469 97.136719 L 110.398438 97.183594 L 110.398438 94.878906 C 110.398438 92.742188 110.304688 92.25 109.992188 92.753906 M 112.703125 96.910156 C 113.242188 96.941406 114.121094 96.941406 114.660156 96.910156 C 115.199219 96.878906 114.757812 96.855469 113.683594 96.855469 C 112.609375 96.855469 112.167969 96.878906 112.703125 96.910156 M 120.679688 96.910156 C 121.21875 96.941406 122.097656 96.941406 122.636719 96.910156 C 123.171875 96.878906 122.734375 96.855469 121.65625 96.855469 C 120.582031 96.855469 120.140625 96.878906 120.679688 96.910156 M 60.078125 97.066406 C 60.828125 97.09375 62.09375 97.097656 62.894531 97.066406 C 63.691406 97.039062 63.082031 97.015625 61.53125 97.015625 C 59.984375 97.015625 59.328125 97.039062 60.078125 97.066406 M 144.675781 97.066406 C 145.421875 97.09375 146.691406 97.097656 147.488281 97.066406 C 148.289062 97.039062 147.679688 97.015625 146.128906 97.015625 C 144.582031 97.015625 143.925781 97.039062 144.675781 97.066406 M 119.851562 104.535156 C 119.851562 108.664062 119.875 110.328125 119.898438 108.238281 C 119.921875 106.148438 119.921875 102.769531 119.898438 100.730469 C 119.875 98.695312 119.851562 100.40625 119.851562 104.535156 M 71.976562 100.9375 C 71.976562 101.367188 72.007812 101.527344 72.042969 101.289062 C 72.078125 101.050781 72.078125 100.699219 72.042969 100.507812 C 72.003906 100.3125 71.972656 100.507812 71.976562 100.9375 M 107.820312 100.390625 L 105.941406 100.484375 L 107.769531 100.515625 C 108.855469 100.535156 109.636719 100.484375 109.695312 100.390625 C 109.746094 100.304688 109.769531 100.25 109.742188 100.265625 C 109.71875 100.285156 108.851562 100.339844 107.820312 100.390625 M 71.816406 103.988281 C 71.816406 104.375 71.847656 104.53125 71.886719 104.339844 C 71.921875 104.144531 71.921875 103.828125 71.886719 103.636719 C 71.847656 103.441406 71.816406 103.601562 71.816406 103.988281 M 144.175781 103.410156 C 144.175781 103.4375 144.402344 103.667969 144.683594 103.917969 L 145.191406 104.378906 L 144.734375 103.871094 C 144.304688 103.398438 144.175781 103.289062 144.175781 103.410156 M 170.023438 105.082031 C 170.023438 105.554688 170.050781 105.75 170.089844 105.511719 C 170.125 105.277344 170.125 104.886719 170.089844 104.652344 C 170.050781 104.414062 170.023438 104.609375 170.023438 105.082031 M 105.464844 104.8125 C 105.421875 104.921875 105.410156 106.628906 105.433594 108.605469 L 105.480469 112.195312 L 105.515625 108.472656 L 105.550781 104.753906 L 107.648438 104.800781 C 108.800781 104.824219 109.710938 104.796875 109.671875 104.730469 C 109.535156 104.515625 105.550781 104.589844 105.464844 104.8125 M 42.757812 107.308594 L 42.296875 107.820312 L 42.808594 107.359375 C 43.28125 106.929688 43.386719 106.800781 43.265625 106.800781 C 43.238281 106.800781 43.011719 107.03125 42.757812 107.308594 M 117.90625 112.273438 L 115.949219 112.367188 L 117.855469 112.398438 C 118.992188 112.417969 119.800781 112.367188 119.859375 112.273438 C 119.914062 112.1875 119.933594 112.132812 119.90625 112.152344 C 119.882812 112.167969 118.980469 112.222656 117.90625 112.273438 M 87.765625 112.390625 C 88.34375 112.421875 89.292969 112.421875 89.875 112.390625 C 90.457031 112.359375 89.980469 112.335938 88.820312 112.335938 C 87.660156 112.335938 87.183594 112.359375 87.765625 112.390625 M 102.539062 112.390625 C 103.078125 112.421875 103.957031 112.421875 104.496094 112.390625 C 105.03125 112.359375 104.59375 112.335938 103.519531 112.335938 C 102.445312 112.335938 102.003906 112.359375 102.539062 112.390625 M 40.773438 113.167969 C 40.96875 113.203125 41.285156 113.203125 41.476562 113.167969 C 41.671875 113.128906 41.511719 113.097656 41.125 113.097656 C 40.738281 113.097656 40.582031 113.128906 40.773438 113.167969 M 166.1875 113.167969 C 166.382812 113.203125 166.664062 113.203125 166.8125 113.164062 C 166.960938 113.125 166.800781 113.09375 166.457031 113.097656 C 166.113281 113.097656 165.992188 113.128906 166.1875 113.167969 M 56.8125 113.332031 C 58.601562 113.355469 61.488281 113.355469 63.222656 113.332031 C 64.960938 113.304688 63.496094 113.285156 59.96875 113.285156 C 56.441406 113.285156 55.023438 113.304688 56.8125 113.332031 M 142.089844 113.316406 C 142.03125 113.375 141.988281 113.496094 141.988281 113.589844 C 141.988281 113.691406 142.039062 113.683594 142.113281 113.566406 C 142.207031 113.421875 143.664062 113.363281 148.171875 113.332031 L 154.105469 113.289062 L 148.148438 113.25 C 144.875 113.230469 142.148438 113.261719 142.089844 113.316406 M 54.488281 122.046875 C 54.488281 124.800781 54.507812 125.90625 54.535156 124.5 C 54.558594 123.097656 54.558594 120.847656 54.535156 119.496094 C 54.507812 118.148438 54.488281 119.296875 54.488281 122.046875 M 127.597656 126.738281 C 126.960938 127.382812 126.46875 127.914062 126.511719 127.914062 C 126.554688 127.914062 127.117188 127.382812 127.757812 126.738281 C 128.398438 126.09375 128.886719 125.566406 128.84375 125.566406 C 128.800781 125.566406 128.242188 126.09375 127.597656 126.738281 M 82.09375 127.335938 C 82.09375 127.363281 82.324219 127.589844 82.601562 127.84375 L 83.113281 128.304688 L 82.652344 127.796875 C 82.222656 127.320312 82.09375 127.214844 82.09375 127.335938 M 52.503906 132.246094 C 52.78125 132.28125 53.238281 132.28125 53.519531 132.246094 C 53.796875 132.214844 53.570312 132.183594 53.011719 132.183594 C 52.449219 132.183594 52.222656 132.214844 52.503906 132.246094 M 154.144531 132.246094 C 154.421875 132.28125 154.882812 132.28125 155.160156 132.246094 C 155.441406 132.214844 155.210938 132.183594 154.652344 132.183594 C 154.09375 132.183594 153.863281 132.214844 154.144531 132.246094 M 78.675781 133.660156 C 78.699219 134.753906 78.765625 134.632812 78.84375 133.347656 C 78.871094 132.9375 78.839844 132.601562 78.773438 132.601562 C 78.707031 132.601562 78.664062 133.078125 78.675781 133.660156 M 140.773438 134.558594 C 140.777344 134.902344 140.808594 135.023438 140.84375 134.828125 C 140.882812 134.636719 140.882812 134.355469 140.84375 134.203125 C 140.804688 134.054688 140.773438 134.214844 140.773438 134.558594 M 76.035156 135.21875 C 76.359375 135.253906 76.886719 135.253906 77.210938 135.21875 C 77.53125 135.183594 77.265625 135.15625 76.621094 135.15625 C 75.976562 135.15625 75.714844 135.183594 76.035156 135.21875 M 130.535156 135.21875 C 130.902344 135.253906 131.464844 135.253906 131.785156 135.21875 C 132.105469 135.183594 131.804688 135.160156 131.117188 135.160156 C 130.429688 135.160156 130.167969 135.1875 130.535156 135.21875 M 104.183594 136.3125 C 104.503906 136.347656 105.03125 136.347656 105.355469 136.3125 C 105.679688 136.28125 105.414062 136.253906 104.769531 136.253906 C 104.125 136.253906 103.859375 136.28125 104.183594 136.3125 M 149.953125 137.570312 L 149.414062 138.15625 L 150 137.617188 C 150.546875 137.113281 150.660156 136.980469 150.539062 136.980469 C 150.511719 136.980469 150.25 137.246094 149.953125 137.570312 M 57.230469 137.1875 C 57.230469 137.214844 57.460938 137.441406 57.742188 137.695312 L 58.25 138.15625 L 57.789062 137.648438 C 57.359375 137.171875 57.230469 137.066406 57.230469 137.1875 M 69.628906 137.5625 C 69.863281 137.597656 70.214844 137.597656 70.410156 137.5625 C 70.601562 137.523438 70.40625 137.496094 69.976562 137.496094 C 69.546875 137.496094 69.390625 137.527344 69.628906 137.5625 M 137.335938 137.5625 C 137.574219 137.597656 137.925781 137.597656 138.117188 137.5625 C 138.308594 137.523438 138.117188 137.496094 137.683594 137.496094 C 137.253906 137.496094 137.097656 137.527344 137.335938 137.5625 M 110.941406 149.335938 C 110.941406 153.507812 110.960938 155.214844 110.984375 153.128906 C 111.007812 151.042969 111.007812 147.628906 110.984375 145.542969 C 110.960938 143.457031 110.941406 145.164062 110.941406 149.335938 M 100.425781 161.53125 C 100.425781 161.832031 100.460938 161.957031 100.5 161.804688 C 100.539062 161.65625 100.539062 161.410156 100.5 161.257812 C 100.460938 161.109375 100.425781 161.230469 100.425781 161.53125 "/>
<path style=" stroke:none;fill-rule:evenodd;fill:rgb(70.588235%,73.72549%,51.764706%);fill-opacity:1;" d="M 98.417969 53.324219 C 98.417969 54.398438 98.445312 54.839844 98.472656 54.300781 C 98.503906 53.761719 98.503906 52.882812 98.472656 52.34375 C 98.445312 51.808594 98.417969 52.246094 98.417969 53.324219 M 121.222656 67.398438 C 121.222656 67.699219 121.257812 67.820312 121.296875 67.671875 C 121.335938 67.519531 121.335938 67.273438 121.296875 67.121094 C 121.257812 66.972656 121.222656 67.09375 121.222656 67.398438 M 81.996094 70.523438 C 81.996094 71.339844 82.023438 71.675781 82.054688 71.265625 C 82.085938 70.859375 82.085938 70.191406 82.054688 69.78125 C 82.023438 69.371094 81.996094 69.707031 81.996094 70.523438 M 147.03125 70.210938 C 147.03125 70.597656 147.0625 70.757812 147.101562 70.5625 C 147.136719 70.371094 147.136719 70.054688 147.101562 69.859375 C 147.0625 69.664062 147.03125 69.824219 147.03125 70.210938 M 144.867188 73.394531 C 144.820312 73.511719 144.804688 74.023438 144.832031 74.527344 L 144.882812 75.449219 L 144.960938 74.316406 C 145.035156 73.175781 145.015625 73 144.867188 73.394531 M 65.558594 97.683594 C 65.710938 97.722656 65.957031 97.722656 66.105469 97.683594 C 66.257812 97.644531 66.132812 97.613281 65.832031 97.613281 C 65.53125 97.613281 65.410156 97.644531 65.558594 97.683594 M 43.824219 113.796875 C 44.230469 113.828125 44.902344 113.828125 45.308594 113.796875 C 45.71875 113.765625 45.382812 113.738281 44.566406 113.738281 C 43.75 113.738281 43.414062 113.765625 43.824219 113.796875 M 162.90625 113.796875 C 163.359375 113.828125 164.0625 113.828125 164.46875 113.796875 C 164.875 113.765625 164.503906 113.738281 163.644531 113.738281 C 162.785156 113.738281 162.453125 113.765625 162.90625 113.796875 M 60.386719 117.710938 C 61.824219 117.734375 64.214844 117.734375 65.707031 117.710938 C 67.195312 117.683594 66.019531 117.660156 63.097656 117.660156 C 60.171875 117.660156 58.953125 117.683594 60.386719 117.710938 M 143.199219 117.710938 C 144.507812 117.734375 146.65625 117.734375 147.96875 117.710938 C 149.277344 117.683594 148.207031 117.660156 145.582031 117.660156 C 142.960938 117.660156 141.886719 117.683594 143.199219 117.710938 M 154.863281 118.921875 C 154.863281 119.695312 154.890625 120.03125 154.921875 119.667969 C 154.957031 119.304688 154.957031 118.671875 154.921875 118.261719 C 154.890625 117.851562 154.863281 118.148438 154.863281 118.921875 M 153.15625 121.65625 C 153.15625 123.765625 153.179688 124.625 153.203125 123.574219 C 153.230469 122.519531 153.230469 120.796875 153.203125 119.742188 C 153.179688 118.6875 153.15625 119.550781 153.15625 121.65625 M 148.765625 130.960938 C 148.765625 131.734375 148.792969 132.070312 148.824219 131.710938 C 148.855469 131.347656 148.859375 130.714844 148.824219 130.300781 C 148.792969 129.890625 148.765625 130.1875 148.765625 130.960938 M 130.613281 133.074219 C 130.613281 133.460938 130.644531 133.617188 130.679688 133.425781 C 130.71875 133.230469 130.71875 132.914062 130.679688 132.722656 C 130.644531 132.527344 130.613281 132.683594 130.613281 133.074219 M 151.09375 135.886719 C 151.09375 136.1875 151.125 136.3125 151.164062 136.160156 C 151.203125 136.011719 151.203125 135.765625 151.164062 135.613281 C 151.125 135.464844 151.09375 135.585938 151.09375 135.886719 M 73.691406 135.84375 C 73.925781 135.878906 74.3125 135.878906 74.550781 135.84375 C 74.785156 135.808594 74.59375 135.777344 74.121094 135.777344 C 73.648438 135.777344 73.453125 135.808594 73.691406 135.84375 M 133.503906 135.839844 C 133.695312 135.878906 134.011719 135.878906 134.207031 135.839844 C 134.398438 135.804688 134.242188 135.773438 133.855469 135.773438 C 133.46875 135.773438 133.308594 135.804688 133.503906 135.839844 M 84.183594 138.15625 C 84.183594 138.929688 84.210938 139.265625 84.242188 138.902344 C 84.277344 138.539062 84.277344 137.90625 84.242188 137.496094 C 84.210938 137.085938 84.183594 137.382812 84.183594 138.15625 "/>
<path style=" stroke:none;fill-rule:evenodd;fill:rgb(89.019608%,83.529412%,22.745098%);fill-opacity:1;" d="M 109.511719 50.351562 C 109.511719 50.910156 109.539062 51.140625 109.574219 50.859375 C 109.609375 50.582031 109.609375 50.121094 109.574219 49.84375 C 109.539062 49.5625 109.511719 49.792969 109.511719 50.351562 M 102.933594 65.007812 C 103.171875 65.042969 103.523438 65.042969 103.714844 65.003906 C 103.910156 64.96875 103.714844 64.9375 103.285156 64.9375 C 102.855469 64.941406 102.695312 64.96875 102.933594 65.007812 M 105.90625 65.007812 C 106.144531 65.042969 106.496094 65.042969 106.6875 65.003906 C 106.878906 64.96875 106.683594 64.9375 106.253906 64.9375 C 105.824219 64.941406 105.667969 64.96875 105.90625 65.007812 M 63.683594 66.722656 C 63.832031 66.761719 64.078125 66.761719 64.230469 66.722656 C 64.378906 66.683594 64.257812 66.652344 63.957031 66.652344 C 63.65625 66.652344 63.53125 66.683594 63.683594 66.722656 M 130.804688 66.769531 L 129.867188 66.875 L 130.757812 66.902344 C 131.246094 66.914062 131.691406 66.855469 131.742188 66.769531 C 131.796875 66.683594 131.820312 66.625 131.792969 66.640625 C 131.765625 66.65625 131.320312 66.714844 130.804688 66.769531 M 143.433594 66.722656 C 143.582031 66.761719 143.828125 66.761719 143.980469 66.722656 C 144.128906 66.683594 144.007812 66.652344 143.707031 66.652344 C 143.40625 66.652344 143.28125 66.683594 143.433594 66.722656 M 76.429688 66.882812 C 76.710938 66.917969 77.132812 66.917969 77.367188 66.882812 C 77.601562 66.847656 77.371094 66.820312 76.855469 66.820312 C 76.339844 66.820312 76.148438 66.847656 76.429688 66.882812 M 86.683594 68.023438 C 86.683594 68.667969 86.710938 68.929688 86.742188 68.609375 C 86.777344 68.285156 86.777344 67.757812 86.742188 67.433594 C 86.710938 67.113281 86.683594 67.378906 86.683594 68.023438 M 80.265625 69.742188 C 80.265625 70.214844 80.296875 70.410156 80.332031 70.171875 C 80.367188 69.933594 80.367188 69.546875 80.332031 69.3125 C 80.296875 69.074219 80.265625 69.269531 80.265625 69.742188 M 63.074219 76.386719 C 63.074219 77.246094 63.101562 77.578125 63.132812 77.125 C 63.164062 76.671875 63.164062 75.96875 63.132812 75.5625 C 63.101562 75.15625 63.074219 75.527344 63.074219 76.386719 M 77.007812 76.347656 L 76.386719 77.011719 L 77.050781 76.394531 C 77.671875 75.820312 77.789062 75.683594 77.671875 75.683594 C 77.644531 75.683594 77.347656 75.984375 77.007812 76.347656 M 57.507812 95.496094 C 57.699219 95.535156 58.015625 95.535156 58.210938 95.496094 C 58.402344 95.460938 58.246094 95.429688 57.859375 95.429688 C 57.46875 95.429688 57.3125 95.460938 57.507812 95.496094 M 149.453125 95.496094 C 149.644531 95.535156 149.964844 95.535156 150.15625 95.496094 C 150.351562 95.460938 150.191406 95.429688 149.804688 95.429688 C 149.417969 95.429688 149.257812 95.460938 149.453125 95.496094 M 65.871094 95.652344 C 66.023438 95.691406 66.269531 95.691406 66.417969 95.652344 C 66.570312 95.613281 66.445312 95.578125 66.144531 95.578125 C 65.84375 95.578125 65.722656 95.613281 65.871094 95.652344 M 143.273438 104.144531 C 143.273438 104.445312 143.304688 104.566406 143.34375 104.417969 C 143.382812 104.265625 143.382812 104.019531 143.34375 103.871094 C 143.304688 103.71875 143.273438 103.84375 143.273438 104.144531 M 48.359375 111.765625 C 48.765625 111.796875 49.433594 111.796875 49.84375 111.765625 C 50.253906 111.734375 49.917969 111.707031 49.101562 111.707031 C 48.285156 111.707031 47.949219 111.734375 48.359375 111.765625 M 157.980469 111.765625 C 158.390625 111.796875 159.023438 111.796875 159.386719 111.765625 C 159.75 111.730469 159.414062 111.703125 158.640625 111.703125 C 157.867188 111.707031 157.570312 111.734375 157.980469 111.765625 M 53.269531 115.675781 C 53.203125 115.78125 58.605469 115.78125 65.207031 115.671875 C 66.625 115.648438 64.535156 115.613281 60.566406 115.59375 C 56.589844 115.574219 53.308594 115.613281 53.269531 115.675781 M 143.707031 115.671875 C 149.464844 115.78125 154.460938 115.78125 154.394531 115.675781 C 154.351562 115.613281 151.421875 115.574219 147.878906 115.59375 C 144.335938 115.613281 142.460938 115.648438 143.707031 115.671875 M 59.160156 128.382812 C 59.160156 128.941406 59.1875 129.167969 59.222656 128.890625 C 59.257812 128.609375 59.257812 128.152344 59.222656 127.875 C 59.1875 127.59375 59.160156 127.824219 59.160156 128.382812 M 104.105469 142.414062 C 104.46875 142.445312 105.070312 142.445312 105.433594 142.414062 C 105.800781 142.378906 105.5 142.351562 104.769531 142.351562 C 104.039062 142.351562 103.738281 142.378906 104.105469 142.414062 M 96.691406 156.605469 C 96.691406 157.210938 96.71875 157.4375 96.753906 157.113281 C 96.785156 156.785156 96.785156 156.292969 96.75 156.015625 C 96.714844 155.738281 96.6875 156.003906 96.691406 156.605469 "/>
<path style=" stroke:none;fill-rule:evenodd;fill:rgb(86.27451%,71.764706%,19.215686%);fill-opacity:1;" d="M 144.707031 82.640625 C 144.707031 84.105469 144.730469 84.722656 144.761719 84.019531 C 144.789062 83.3125 144.789062 82.117188 144.761719 81.359375 C 144.730469 80.601562 144.707031 81.179688 144.707031 82.640625 M 58.445312 97.53125 C 58.726562 97.566406 59.148438 97.566406 59.386719 97.53125 C 59.621094 97.496094 59.390625 97.46875 58.875 97.46875 C 58.359375 97.46875 58.164062 97.5 58.445312 97.53125 M 148.90625 97.53125 C 149.140625 97.566406 149.527344 97.566406 149.765625 97.53125 C 150.003906 97.496094 149.808594 97.464844 149.335938 97.464844 C 148.863281 97.464844 148.667969 97.496094 148.90625 97.53125 M 52.191406 99.71875 C 52.386719 99.757812 52.667969 99.753906 52.816406 99.714844 C 52.964844 99.675781 52.808594 99.648438 52.464844 99.648438 C 52.117188 99.648438 51.996094 99.683594 52.191406 99.71875 M 155.398438 99.71875 C 155.589844 99.757812 155.871094 99.753906 156.023438 99.714844 C 156.171875 99.675781 156.011719 99.648438 155.667969 99.648438 C 155.324219 99.648438 155.203125 99.683594 155.398438 99.71875 M 52.03125 113.796875 C 52.65625 113.828125 53.675781 113.828125 54.300781 113.796875 C 54.925781 113.769531 54.414062 113.746094 53.167969 113.746094 C 51.917969 113.746094 51.410156 113.769531 52.03125 113.796875 M 153.902344 113.796875 C 154.480469 113.828125 155.464844 113.828125 156.089844 113.800781 C 156.71875 113.769531 156.246094 113.746094 155.042969 113.746094 C 153.839844 113.742188 153.324219 113.769531 153.902344 113.796875 M 154.867188 128.695312 C 154.867188 129.769531 154.894531 130.210938 154.925781 129.671875 C 154.953125 129.132812 154.953125 128.253906 154.925781 127.71875 C 154.894531 127.179688 154.867188 127.617188 154.867188 128.695312 M 54.625 129.398438 C 54.625 130 54.652344 130.226562 54.6875 129.902344 C 54.722656 129.578125 54.722656 129.085938 54.6875 128.808594 C 54.652344 128.53125 54.625 128.796875 54.625 129.398438 M 166.417969 131.976562 C 166.417969 132.277344 166.449219 132.402344 166.488281 132.253906 C 166.527344 132.101562 166.527344 131.855469 166.488281 131.703125 C 166.449219 131.554688 166.417969 131.675781 166.417969 131.976562 M 59.851562 138.96875 C 60.046875 139.007812 60.328125 139.003906 60.480469 138.964844 C 60.628906 138.925781 60.46875 138.894531 60.125 138.898438 C 59.78125 138.898438 59.660156 138.929688 59.851562 138.96875 M 147.734375 138.96875 C 147.929688 139.007812 148.210938 139.003906 148.359375 138.964844 C 148.507812 138.925781 148.351562 138.894531 148.007812 138.898438 C 147.660156 138.898438 147.539062 138.929688 147.734375 138.96875 "/>
</g>
</svg>
